<?xml version="1.0" standalone="no"?><!DOCTYPE svg PUBLIC "-//W3C//DTD SVG 1.1//EN" "http://www.w3.org/Graphics/SVG/1.1/DTD/svg11.dtd"><svg t="1754022841151" class="icon" viewBox="0 0 1024 1024" version="1.1" xmlns="http://www.w3.org/2000/svg" p-id="7632" xmlns:xlink="http://www.w3.org/1999/xlink" width="16" height="16"><path d="M896.8192 359.0144h-1.8432a398.9504 398.9504 0 0 0-766.5664 1.024 59.1872 59.1872 0 0 0-60.8256 58.368v96.256a59.1872 59.1872 0 1 0 118.3744 0v-96.256A59.1872 59.1872 0 0 0 155.8528 368.64a370.2784 370.2784 0 0 1 711.4752 0 58.9824 58.9824 0 0 0-29.696 51.2v96.256a58.9824 58.9824 0 0 0 31.9488 52.224 371.0976 371.0976 0 0 1-300.4416 268.6976 66.56 66.56 0 1 0 2.2528 28.672A399.5648 399.5648 0 0 0 897.4336 573.44a59.1872 59.1872 0 0 0 58.5728-58.9824v-96.256a59.392 59.392 0 0 0-59.1872-59.1872zM157.2864 418.2016v96.256a30.5152 30.5152 0 0 1-61.44 0v-96.256a30.5152 30.5152 0 0 1 30.5152-30.5152 30.72 30.72 0 0 1 30.9248 30.5152z m348.16 476.16a38.2976 38.2976 0 1 1 38.2976-38.2976 38.5024 38.5024 0 0 1-38.2976 38.2976z m421.888-379.904a30.5152 30.5152 0 1 1-61.44 0v-96.256a30.5152 30.5152 0 0 1 30.5152-30.5152 30.72 30.72 0 0 1 30.5152 30.5152z" fill="#F0CC8C" p-id="7633"></path><path d="M661.7088 620.1344a14.336 14.336 0 0 0-23.7568-15.9744 159.1296 159.1296 0 0 1-37.0688 37.0688 155.2384 155.2384 0 0 1-215.8592-37.888 14.1312 14.1312 0 0 0-19.0464-3.2768 14.336 14.336 0 0 0-4.3008 20.48 184.32 184.32 0 0 0 300.032 0z" fill="#F0CC8C" p-id="7634"></path></svg>