<svg width="42" height="39" viewBox="0 0 42 39" fill="none" xmlns="http://www.w3.org/2000/svg">
    <path d="M21.3601 39.0001C32.2732 39.0001 41.1201 30.7353 41.1201 20.5401C41.1201 10.3449 32.2732 2.08008 21.3601 2.08008C10.447 2.08008 1.6001 10.3449 1.6001 20.5401C1.6001 30.7353 10.447 39.0001 21.3601 39.0001Z" fill="url(#paint0_linear_4_597)"/>
    <path d="M39.02 18.46C39.02 28.3475 30.4296 36.42 19.76 36.42C9.0904 36.42 0.5 28.3475 0.5 18.46C0.5 8.57247 9.0904 0.5 19.76 0.5C30.4296 0.5 39.02 8.57247 39.02 18.46Z" fill="url(#paint1_radial_4_597)" stroke="url(#paint2_linear_4_597)"/>
    <path d="M34.6897 17.2525L20.731 4.19757C19.3184 2.87645 17.0268 3.02756 15.6222 4.52934L5.42567 15.4319C4.02113 16.9336 4.02354 19.2302 5.43612 20.5514L19.3949 33.6063C20.8052 34.9252 23.0991 34.7763 24.5036 33.2745L34.7002 22.372C36.1047 20.8702 36.1 18.5715 34.6897 17.2525ZM26.5819 28.2529L21.4627 23.4652C20.5653 22.6258 20.5623 21.1651 21.4561 20.2094C22.3499 19.2537 23.8075 19.1591 24.705 19.9984L29.8242 24.7861L26.5819 28.2529ZM31.2173 23.2966L26.0981 18.5088C24.4314 16.95 21.7217 17.126 20.0618 18.9008C18.3996 20.6781 18.4074 23.3911 20.0741 24.9499L25.1933 29.7376L23.107 31.9684C22.4686 32.651 21.4268 32.7186 20.7857 32.1191L6.82698 19.0642C6.18594 18.4647 6.1838 17.4206 6.82223 16.738L17.0188 5.83547C17.6572 5.15285 18.6991 5.08519 19.3401 5.68472L33.2989 18.7396C33.9399 19.3392 33.942 20.3832 33.3036 21.0658L31.2173 23.2966ZM22.0911 20.1213C21.5781 20.6699 21.5798 21.5033 22.0926 21.9829C22.6055 22.4625 23.4371 22.4085 23.9501 21.86C24.4632 21.3115 24.4615 20.4781 23.9486 19.9984C23.4335 19.5212 22.6018 19.5752 22.0911 20.1213Z" fill="url(#paint3_linear_4_597)"/>
    <path d="M33.8977 16.4488L19.939 3.39386C18.5264 2.07274 16.3045 2.1493 14.9855 3.5596L5.41008 13.798C4.09111 15.2083 4.16324 17.4303 5.57582 18.7515L19.5346 31.8064C20.9449 33.1253 23.169 33.0509 24.488 31.6406L34.0635 21.4022C35.3825 19.9919 35.308 17.7677 33.8977 16.4488ZM26.3547 26.8454L21.2355 22.0576C20.338 21.2183 20.2907 19.8049 21.1301 18.9075C21.9694 18.01 23.3828 17.9627 24.2802 18.8021L29.3994 23.5898L26.3547 26.8454ZM30.7077 22.1909L25.5885 17.4032C23.9218 15.8444 21.2944 15.9323 19.7356 17.599C18.1747 19.268 18.2648 21.8931 19.9315 23.4519L25.0507 28.2396L23.0915 30.3345C22.4919 30.9755 21.4817 31.0093 20.8407 30.4098L6.88196 17.3549C6.24091 16.7554 6.20711 15.7452 6.80665 15.1041L16.3821 4.86573C16.9816 4.22469 17.9918 4.19089 18.6329 4.79042L32.5916 17.8453C33.2326 18.4449 33.2664 19.455 32.6669 20.0961L30.7077 22.1909ZM22.064 19.7766C21.5822 20.2918 21.6092 21.0981 22.122 21.5778C22.6349 22.0574 23.4413 22.0304 23.923 21.5153C24.4048 21.0002 24.3778 20.1938 23.865 19.7142C23.35 19.2368 22.5436 19.2638 22.064 19.7766Z" fill="white"/>
    <defs>
        <linearGradient id="paint0_linear_4_597" x1="39.5001" y1="9.00012" x2="8.99128" y2="38.5555" gradientUnits="userSpaceOnUse">
            <stop stop-color="#B6A279"/>
            <stop offset="0.198712" stop-color="#D4B26E"/>
            <stop offset="0.373577" stop-color="#C7901B"/>
            <stop offset="0.566952" stop-color="#FFF5E0"/>
            <stop offset="0.776143" stop-color="#A17412"/>
            <stop offset="0.931916" stop-color="#FFE8B6"/>
            <stop offset="1" stop-color="#B29F77"/>
        </linearGradient>
        <radialGradient id="paint1_radial_4_597" cx="0" cy="0" r="1" gradientUnits="userSpaceOnUse" gradientTransform="translate(37.47 29.0745) rotate(-138.22) scale(49.1786 74.3489)">
            <stop offset="0.00914537" stop-color="#363835"/>
            <stop offset="0.277881" stop-color="#6D6F70"/>
            <stop offset="0.985997" stop-color="#353638"/>
        </radialGradient>
        <linearGradient id="paint2_linear_4_597" x1="33.3784" y1="3.09578" x2="8.69959" y2="16.3937" gradientUnits="userSpaceOnUse">
            <stop stop-color="#FFFDE1"/>
            <stop offset="0.595335" stop-color="#886D49"/>
            <stop offset="1" stop-color="#CEB685"/>
        </linearGradient>
        <linearGradient id="paint3_linear_4_597" x1="33.6005" y1="21.9802" x2="6.76879" y2="23.6073" gradientUnits="userSpaceOnUse">
            <stop stop-color="#B6A279"/>
            <stop offset="0.198712" stop-color="#D4B26E"/>
            <stop offset="0.373577" stop-color="#C7901B"/>
            <stop offset="0.566952" stop-color="#FFF5E0"/>
            <stop offset="0.776143" stop-color="#A17412"/>
            <stop offset="0.931916" stop-color="#FFE8B6"/>
            <stop offset="1" stop-color="#B29F77"/>
        </linearGradient>
    </defs>
</svg>
