<svg width="30" height="30" viewBox="0 0 30 30" fill="none" xmlns="http://www.w3.org/2000/svg">
    <path d="M24.5091 0H5.49093C2.45837 0 0 2.31043 0 5.16048V24.8395C0 27.6896 2.45837 30 5.49093 30H24.5091C27.5416 30 30 27.6896 30 24.8395V5.16048C30 2.31043 27.5416 0 24.5091 0Z" fill="url(#paint0_linear_4_516)"/>
    <path d="M24.5091 0H5.49093C2.45837 0 0 2.31043 0 5.16048V23.4855C0 26.3355 2.45837 28.6459 5.49093 28.6459H24.5091C27.5416 28.6459 30 26.3355 30 23.4855V5.16048C30 2.31043 27.5416 0 24.5091 0Z" fill="url(#paint1_linear_4_516)"/>
    <path d="M24 15.7207H24.1115V15.6091V13.0302C24.1115 12.5207 23.9326 12.0845 23.5763 11.7283C23.2201 11.372 22.7839 11.1931 22.2744 11.1931H8.50757C7.99807 11.1931 7.56186 11.372 7.20562 11.7283C6.84937 12.0845 6.67044 12.5207 6.67044 13.0302V22.4925C6.67044 22.7479 6.72094 22.9881 6.82266 23.2119C6.92328 23.4332 7.06106 23.6282 7.23562 23.796C7.41025 23.9639 7.61175 24.0948 7.83934 24.1885C8.06817 24.2828 8.3102 24.3297 8.56446 24.3297H22.3313C22.5855 24.3297 22.8221 24.2828 23.0397 24.1876C23.2553 24.0933 23.4444 23.9616 23.6064 23.7929C23.7684 23.6241 23.8931 23.4284 23.9805 23.2066C24.0681 22.9841 24.1115 22.7457 24.1115 22.4925C24.1115 20.5249 22.5164 18.9298 20.5488 18.9298H19.6955C19.2656 18.9298 18.9551 18.8435 18.7483 18.6869C18.5255 18.5183 18.3712 18.3357 18.2794 18.1405L18.2794 18.1405L18.2782 18.1382C18.1603 17.9022 18.0938 17.6281 18.0814 17.3136C18.0819 16.8634 18.2379 16.4885 18.5505 16.1818C18.6226 16.111 18.6983 16.0484 18.7775 15.9939C18.7432 16.0947 18.7261 16.203 18.7261 16.3183C18.7261 16.5869 18.8191 16.8202 19.0038 17.0119C19.1895 17.2048 19.4209 17.3021 19.6909 17.3021C19.961 17.3021 20.1924 17.2048 20.3781 17.0119C20.5627 16.8202 20.6558 16.5869 20.6558 16.3183C20.6558 16.0905 20.5888 15.8898 20.4551 15.7207H24ZM21.5259 9.58569H21.7361L21.6183 9.41164L20.3947 7.60302L20.3905 7.59693L20.3856 7.59142C20.1737 7.35304 19.9221 7.16111 19.6316 7.01585L19.6317 7.01564L19.625 7.01281C19.3697 6.90534 19.0624 6.84353 18.706 6.82409C18.3307 6.80362 17.915 6.92325 17.4624 7.16885C17.1711 7.32082 16.7664 7.53582 16.2484 7.81375C15.7305 8.09169 15.2062 8.36964 14.6755 8.64758L14.6755 8.64757L14.6742 8.64831C14.3805 8.80735 14.1075 8.8981 13.8155 8.99491L13.8136 8.99554C13.5228 9.09192 13.2149 9.19401 12.8656 9.37512L12.9169 9.58569H21.5259Z" fill="url(#paint2_linear_4_516)" stroke="#735514" stroke-width="0.223089"/>
    <path d="M24 21.3771C24 21.6173 23.9589 21.8417 23.8767 22.0503C23.7945 22.2589 23.6776 22.4422 23.5259 22.6002C23.3742 22.7582 23.1972 22.8815 22.9949 22.97C22.7927 23.0585 22.5715 23.1027 22.3313 23.1027H8.56446C8.32427 23.1027 8.09672 23.0585 7.88181 22.97C7.6669 22.8815 7.47728 22.7582 7.31293 22.6002C7.14859 22.4422 7.01901 22.2589 6.9242 22.0503C6.82939 21.8417 6.78198 21.6173 6.78198 21.3771V11.9148C6.78198 11.4344 6.94948 11.0267 7.28449 10.6917C7.61949 10.3567 8.02719 10.1892 8.50757 10.1892H22.2744C22.7548 10.1892 23.1625 10.3567 23.4975 10.6917C23.8325 11.0267 24 11.4344 24 11.9148V14.4937H19.6955C19.2151 14.4937 18.8074 14.6581 18.4724 14.9868C18.1374 15.3154 17.9699 15.72 17.9699 16.2004C17.9825 16.529 18.052 16.8198 18.1785 17.0726C18.2796 17.2875 18.4471 17.4835 18.681 17.6605C18.9148 17.8375 19.253 17.9259 19.6955 17.9259H24V21.3771ZM21.4211 9.31696H12.8121C13.4947 8.96299 14.1394 8.62167 14.7462 8.29298C15.2772 8.01487 15.8018 7.73675 16.3201 7.45863C16.8384 7.18051 17.243 6.96561 17.5337 6.81391C17.9762 6.57371 18.3713 6.4631 18.7189 6.48206C19.0665 6.50102 19.3605 6.56107 19.6007 6.66221C19.8788 6.80126 20.119 6.98457 20.3212 7.21212L21.4211 9.31696ZM18.8422 16.2004C18.8422 15.9602 18.9243 15.7579 19.0887 15.5936C19.253 15.4292 19.4553 15.347 19.6955 15.347C19.9357 15.347 20.1379 15.4292 20.3023 15.5936C20.4666 15.7579 20.5488 15.9602 20.5488 16.2004C20.5488 16.4405 20.4666 16.646 20.3023 16.8166C20.1379 16.9873 19.9357 17.0726 19.6955 17.0726C19.4553 17.0726 19.253 16.9873 19.0887 16.8166C18.9243 16.646 18.8422 16.4405 18.8422 16.2004Z" fill="url(#paint3_linear_4_516)"/>
    <defs>
        <linearGradient id="paint0_linear_4_516" x1="28.5" y1="26.4531" x2="0.000202896" y2="25.9417" gradientUnits="userSpaceOnUse">
            <stop stop-color="#76540D"/>
            <stop offset="0.177025" stop-color="#D4B26E"/>
            <stop offset="0.373577" stop-color="#C7901B"/>
            <stop offset="0.566952" stop-color="#FFF5E0"/>
            <stop offset="0.776143" stop-color="#A17412"/>
            <stop offset="0.931916" stop-color="#FFE8B6"/>
            <stop offset="1" stop-color="#A07418"/>
        </linearGradient>
        <linearGradient id="paint1_linear_4_516" x1="15" y1="28.6459" x2="15" y2="0" gradientUnits="userSpaceOnUse">
            <stop stop-color="#A27616"/>
            <stop offset="1" stop-color="#FAECCF"/>
        </linearGradient>
        <linearGradient id="paint2_linear_4_516" x1="23.9999" y1="15.8945" x2="6.78198" y2="15.8945" gradientUnits="userSpaceOnUse">
            <stop stop-color="#A97F24"/>
            <stop offset="0.151042" stop-color="#7C5A13"/>
            <stop offset="0.5" stop-color="#EFDEB8"/>
            <stop offset="0.921875" stop-color="#7D5B14"/>
            <stop offset="1" stop-color="#B38D3A"/>
        </linearGradient>
        <linearGradient id="paint3_linear_4_516" x1="15.3857" y1="23.1027" x2="15.3857" y2="6.47998" gradientUnits="userSpaceOnUse">
            <stop stop-color="#FFEEC9"/>
            <stop offset="1" stop-color="#FFFDF8"/>
        </linearGradient>
    </defs>
</svg>
