<svg width="18" height="18" viewBox="0 0 18 18" fill="none" xmlns="http://www.w3.org/2000/svg">
    <path fill-rule="evenodd" clip-rule="evenodd" d="M17.3864 3.27273H13.5V1.84091C13.5 0.818182 12.6818 0 11.6591 0H6.34091C5.31818 0 4.5 0.818182 4.5 1.84091V3.27273H0.613636C0.286364 3.27273 0 3.55909 0 3.88636C0 4.21364 0.286364 4.5 0.613636 4.5H17.3864C17.7136 4.5 18 4.21364 18 3.88636C18 3.55909 17.7136 3.27273 17.3864 3.27273ZM5.72727 3.27273V1.84091C5.72727 1.51364 6.01364 1.22727 6.34091 1.22727H11.6591C11.9864 1.22727 12.2727 1.51364 12.2727 1.84091V3.27273H5.72727ZM14.6864 6.34091C14.6864 6.01364 14.9727 5.72727 15.3 5.72727C15.6273 5.72727 15.9136 6.01364 15.9545 6.34091V15.6273C15.9545 16.9364 14.8909 18 13.5818 18H4.41818C3.10909 18 2.04545 16.9364 2.04545 15.6273V6.34091C2.04545 6.01364 2.33182 5.72727 2.65909 5.72727C2.98636 5.72727 3.27273 6.01364 3.27273 6.34091V15.6273C3.27273 16.2818 3.80455 16.7727 4.41818 16.7727H13.5409C14.1955 16.7727 14.6864 16.2409 14.6864 15.6273V6.34091Z" fill="white"/>
    <path fill-rule="evenodd" clip-rule="evenodd" d="M7.28184 6.34069V14.9316C7.28184 15.2589 6.99547 15.5452 6.6682 15.5452C6.34093 15.5452 6.05457 15.2589 6.05457 14.9316V6.34069C6.05457 6.01341 6.34093 5.72705 6.6682 5.72705C6.99547 5.72705 7.28184 6.01341 7.28184 6.34069ZM11.9455 6.34069V14.9316C11.9455 15.2589 11.6591 15.5452 11.3318 15.5452C11.0046 15.5452 10.7182 15.2589 10.7182 14.9316V6.34069C10.7182 6.01341 11.0046 5.72705 11.3318 5.72705C11.6591 5.72705 11.9455 6.01341 11.9455 6.34069Z" fill="white"/>
</svg>
