<svg width="30" height="31" viewBox="0 0 30 31" fill="none" xmlns="http://www.w3.org/2000/svg">
    <path d="M24.5091 0.046875H5.49093C2.45837 0.046875 0 2.3573 0 5.20736V24.8864C0 27.7365 2.45837 30.0469 5.49093 30.0469H24.5091C27.5416 30.0469 30 27.7365 30 24.8864V5.20736C30 2.3573 27.5416 0.046875 24.5091 0.046875Z" fill="url(#paint0_linear_4_510)"/>
    <path d="M24.5091 0.046875H5.49093C2.45837 0.046875 0 2.3573 0 5.20736V23.5323C0 26.3824 2.45837 28.6928 5.49093 28.6928H24.5091C27.5416 28.6928 30 26.3824 30 23.5323V5.20736C30 2.3573 27.5416 0.046875 24.5091 0.046875Z" fill="url(#paint1_linear_4_510)"/>
    <path d="M15.5 24L15.4194 24.0771L15.5 24.1614L15.5806 24.0771L15.5 24ZM15.5 24C15.5806 24.0771 15.5806 24.0771 15.5807 24.077L15.581 24.0767L15.582 24.0756L15.5862 24.0712L15.6024 24.0542L15.6655 23.9874C15.7206 23.9288 15.8014 23.8424 15.9042 23.731C16.1098 23.5083 16.4033 23.1859 16.7555 22.7867C17.4598 21.9883 18.3991 20.8821 19.3387 19.6512C20.2779 18.4207 21.2192 17.0634 21.9261 15.7629C22.631 14.4663 23.1115 13.2111 23.1115 12.1892C23.1115 8.15268 19.6992 4.88846 15.5 4.88846C11.3008 4.88846 7.88846 8.15266 7.88846 12.1892C7.88846 13.2111 8.36896 14.4663 9.07388 15.7629C9.78083 17.0634 10.7221 18.4207 11.6613 19.6512C12.6009 20.8821 13.5402 21.9883 14.2445 22.7867C14.5967 23.1859 14.8902 23.5083 15.0958 23.731C15.1986 23.8424 15.2794 23.9288 15.3345 23.9874L15.3976 24.0542L15.4138 24.0712L15.418 24.0756L15.419 24.0767L15.4193 24.077C15.4194 24.0771 15.4194 24.0771 15.5 24ZM15.5 15.6551C13.5775 15.6551 12.0246 14.1424 12.0246 12.2833C12.0246 10.4242 13.5775 8.91153 15.5 8.91153C17.4225 8.91153 18.9754 10.4242 18.9754 12.2833C18.9754 14.1424 17.4225 15.6551 15.5 15.6551Z" fill="url(#paint2_linear_4_510)" stroke="#735514" stroke-width="0.223089"/>
    <path d="M15.5 4C11.3579 4 8 7.21867 8 11.1892C8 15.1597 15.5 23 15.5 23C15.5 23 23 15.1596 23 11.1892C23 7.21869 19.6421 4 15.5 4ZM15.5 14.7666C13.519 14.7666 11.913 13.2071 11.913 11.2833C11.913 9.35953 13.519 7.79998 15.5 7.79998C17.481 7.79998 19.087 9.35953 19.087 11.2833C19.087 13.2071 17.481 14.7666 15.5 14.7666Z" fill="url(#paint3_linear_4_510)"/>
    <defs>
        <linearGradient id="paint0_linear_4_510" x1="28.5" y1="26.5" x2="0.000202896" y2="25.9886" gradientUnits="userSpaceOnUse">
            <stop stop-color="#76540D"/>
            <stop offset="0.177025" stop-color="#D4B26E"/>
            <stop offset="0.373577" stop-color="#C7901B"/>
            <stop offset="0.566952" stop-color="#FFF5E0"/>
            <stop offset="0.776143" stop-color="#A17412"/>
            <stop offset="0.931916" stop-color="#FFE8B6"/>
            <stop offset="1" stop-color="#A07418"/>
        </linearGradient>
        <linearGradient id="paint1_linear_4_510" x1="15" y1="28.6928" x2="15" y2="0.046875" gradientUnits="userSpaceOnUse">
            <stop stop-color="#A27616"/>
            <stop offset="1" stop-color="#FAECCF"/>
        </linearGradient>
        <linearGradient id="paint2_linear_4_510" x1="23" y1="15.1112" x2="8" y2="15.1112" gradientUnits="userSpaceOnUse">
            <stop stop-color="#A97F24"/>
            <stop offset="0.151042" stop-color="#7C5A13"/>
            <stop offset="0.5" stop-color="#EFDEB8"/>
            <stop offset="0.921875" stop-color="#7D5B14"/>
            <stop offset="1" stop-color="#B38D3A"/>
        </linearGradient>
        <linearGradient id="paint3_linear_4_510" x1="15.4954" y1="23" x2="15.4954" y2="4" gradientUnits="userSpaceOnUse">
            <stop stop-color="#FFEEC9"/>
            <stop offset="1" stop-color="#FFFDF8"/>
        </linearGradient>
    </defs>
</svg>
