<svg width="13" height="12" viewBox="0 0 13 12" fill="none" xmlns="http://www.w3.org/2000/svg">
    <path d="M13 0C5.4 2.8 1 9.16667 0 12H9C11.2091 12 13 10.2086 13 7.99947V0Z" fill="#F3B868"/>
    <path d="M10.3131 5.45408C10.4008 5.36567 10.5195 5.31492 10.644 5.31258C10.7685 5.31025 10.889 5.35652 10.98 5.44158C11.0611 5.51734 11.1117 5.62011 11.1225 5.73059C11.1332 5.84106 11.1032 5.95165 11.0381 6.04158L10.9931 6.0947L7.60873 9.54533C7.52714 9.62768 7.41844 9.67763 7.30281 9.68591C7.18717 9.69418 7.07247 9.66022 6.97998 9.59033L6.92623 9.54283L5.00436 7.55783C4.96191 7.51417 4.92864 7.46245 4.90649 7.40574C4.88435 7.34902 4.87378 7.28844 4.87541 7.22757C4.87704 7.16671 4.89084 7.10678 4.91599 7.05133C4.94114 6.99588 4.97714 6.94602 5.02185 6.9047C5.10451 6.828 5.21158 6.78294 5.3242 6.77746C5.43682 6.77197 5.54776 6.8064 5.63748 6.8747L5.68936 6.92095L7.27186 8.55408L10.3125 5.45408H10.3131Z" fill="white"/>
</svg>
