<svg width="44" height="44" viewBox="0 0 44 44" fill="none" xmlns="http://www.w3.org/2000/svg">
    <path d="M23.36 43.0001C34.2731 43.0001 43.12 34.7353 43.12 24.5401C43.12 14.3449 34.2731 6.08008 23.36 6.08008C12.4468 6.08008 3.59998 14.3449 3.59998 24.5401C3.59998 34.7353 12.4468 43.0001 23.36 43.0001Z" fill="url(#paint0_linear_4_611)"/>
    <path d="M41.0199 22.46C41.0199 32.3475 32.4295 40.42 21.7599 40.42C11.0903 40.42 2.49988 32.3475 2.49988 22.46C2.49988 12.5725 11.0903 4.5 21.7599 4.5C32.4295 4.5 41.0199 12.5725 41.0199 22.46Z" fill="url(#paint1_radial_4_611)" stroke="url(#paint2_linear_4_611)"/>
    <path d="M15 28.5C15.1049 28.603 15.218 28.7015 15.3381 28.7941C17.005 29.4259 18 29.5 19.2913 28.1269C19.389 28.0761 19.4323 27.9616 19.3936 27.859C19.3555 27.7571 19.2426 27.7019 19.1372 27.73C19.127 27.7326 18 28 16.3419 27.73C16.0717 27.5279 15.8231 27.3166 15.6031 27.1006C14.4872 26.0032 14.4054 25.0913 14.4048 25.083C14.3979 24.9775 14.3134 24.892 14.2078 24.8844C14.1015 24.8763 14.0045 24.9481 13.9803 25.0521C13.6879 26.3219 14.0811 27.5974 15 28.5ZM33.3189 27.0585C33.3049 27.0447 33.2896 27.0347 33.2761 27.0215C36.3355 22.0392 35.7465 15.5024 31.469 11.3008C27.0738 6.98373 20.2811 6.59906 15.3139 10.0379C14.3875 9.40766 13.1061 9.51487 12.2803 10.3556L8.97511 13.7206C8.04867 14.6638 8.04956 16.1672 8.97809 17.0793C9.50184 17.5937 10.2084 17.7992 10.8913 17.7192C9.69294 20.4256 9.64036 23.5055 10.729 26.2268C10.7435 26.2213 10.8493 26.1861 10.9483 26.1724C11.017 26.1629 11.0823 26.1639 11.1113 26.1924C11.1413 26.2219 11.1581 26.2598 11.1653 26.2998C11.048 25.5327 11.1225 22.2552 13.1135 19.5349C13.9903 18.3378 15.7804 18.0759 16.8562 18.7984C18.5831 19.958 20.3398 21.072 22.0617 22.2368C23.156 22.9774 24.2922 23.0884 25.5163 22.6173C25.8026 22.5074 26.3293 22.2336 26.9595 21.7121C27.0603 21.6415 27.1958 21.6442 27.286 21.7328C27.3461 21.7919 27.3669 21.873 27.3572 21.9508L27.4221 21.9652C27.1725 23.3694 26.487 26.348 24.7257 28.4687C22.7127 30.8941 20.9198 31.3097 17.6721 31.2045C17.6683 31.2046 17.6632 31.2046 17.6588 31.2041C17.6098 31.2066 17.5628 31.2263 17.5267 31.263C17.4793 31.3113 17.4644 31.3777 17.4768 31.4392C17.4851 31.4588 17.4916 31.4804 17.5 31.5C17.509 31.5139 17.516 31.5284 17.5276 31.5397C17.5391 31.5511 17.5531 31.5573 17.5659 31.5647C17.6028 31.5757 17.6404 31.5835 17.6767 31.5938C20.3399 32.3325 23.4112 33.0522 25.9077 31.7335C25.7919 32.3463 25.9181 32.9931 26.2772 33.528C22.3114 36.1214 17.3525 35.3113 13.4158 32.0611C13.7312 31.305 13.5744 30.394 12.9458 29.7766C12.1247 28.9701 10.8167 28.9701 10.025 29.7761C9.23339 30.5821 9.25741 31.8892 10.0785 32.6957C10.7404 33.3458 11.715 33.4626 12.4846 33.0642C17.022 36.8463 22.855 37.6427 27.3895 34.4321C28.2668 34.781 29.3047 34.5967 30.0071 33.8816L33.3515 30.4767C34.2862 29.5251 34.2718 27.9944 33.3189 27.0585ZM30.8088 26.5146C32.6446 22.4544 31.8999 17.5343 28.5605 14.2542C25.2352 10.988 20.3305 10.3236 16.3127 12.2024C16.3241 12.0807 16.3165 11.9593 16.3107 11.8385C20.4856 8.84043 26.2759 9.13031 30.004 12.7923C33.7143 16.4367 34.1249 22.1843 31.2473 26.4072C31.0985 26.4307 30.9511 26.4631 30.8088 26.5146ZM10.729 26.2268C10.7265 26.2276 10.7268 26.2277 10.729 26.2268V26.2268Z" fill="url(#paint3_linear_4_611)"/>
    <path d="M14.964 27.3302C15.0689 27.4333 15.182 27.5317 15.3021 27.6243C16.4544 28.5119 18.0405 28.647 19.3437 27.9663C19.4414 27.9154 19.4847 27.801 19.446 27.6984C19.4079 27.5965 19.295 27.5413 19.1896 27.5693C19.1794 27.572 18.117 27.8349 16.3108 26.4861C16.0407 26.284 15.7921 26.0727 15.5721 25.8567C14.4562 24.7593 14.3744 23.8474 14.3738 23.8391C14.3669 23.7336 14.2824 23.6481 14.1768 23.6405C14.0705 23.6324 13.9735 23.7042 13.9492 23.8082C13.6569 25.078 14.0451 26.4276 14.964 27.3302ZM33.2879 25.8146C33.2739 25.8008 33.2586 25.7908 33.2451 25.7776C36.3045 20.7953 35.7155 14.2585 31.438 10.0569C27.0428 5.73984 20.2501 5.35516 15.2829 8.79396C14.3565 8.16376 13.0751 8.27097 12.2493 9.11175L8.9441 12.4767C8.01767 13.4199 8.01856 14.9233 8.94709 15.8354C9.47083 16.3498 10.1774 16.5553 10.8603 16.4753C9.66193 19.1817 9.60936 22.2616 10.698 24.9829C10.7125 24.9774 10.8183 24.9422 10.9173 24.9285C10.986 24.919 11.0513 24.92 11.0803 24.9485C11.1103 24.978 11.1271 25.0159 11.1343 25.0559C11.017 24.2888 11.0915 21.0113 13.0825 18.291C13.9593 17.0939 15.7494 16.832 16.8252 17.5545C18.5521 18.7141 20.3088 19.8281 22.0307 20.9929C23.125 21.7336 24.2612 21.8445 25.4853 21.3734C25.7716 21.2635 26.2982 20.9897 26.9285 20.4682C27.0293 20.3976 27.1648 20.4003 27.255 20.4889C27.3151 20.548 27.3359 20.6291 27.3262 20.7069L27.3911 20.7213C27.1415 22.1255 26.456 25.1041 24.6947 27.2248C22.6817 29.6502 21.0695 31.0818 17.8218 30.9766C17.818 30.9767 17.8129 30.9767 17.8085 30.9762C17.7595 30.9787 17.7125 30.9984 17.6765 31.0351C17.629 31.0834 17.6141 31.1498 17.6265 31.2113C17.6349 31.2309 17.6414 31.2525 17.6497 31.2721C17.6587 31.286 17.6657 31.3005 17.6773 31.3119C17.6888 31.3232 17.7028 31.3294 17.7156 31.3368C17.7526 31.3478 17.7901 31.3556 17.8264 31.366C20.4896 32.1046 23.3802 31.8083 25.8767 30.4896C25.7609 31.1024 25.8871 31.7492 26.2462 32.2841C22.2804 34.8775 17.3215 34.0674 13.3848 30.8172C13.7002 30.0611 13.5434 29.1501 12.9148 28.5327C12.0937 27.7262 10.7857 27.7262 9.99404 28.5322C9.20239 29.3382 9.22641 30.6453 10.0475 31.4518C10.7094 32.1019 11.684 32.2187 12.4536 31.8203C16.991 35.6024 22.824 36.3988 27.3585 33.1882C28.2358 33.5371 29.2737 33.3528 29.9761 32.6377L33.3205 29.2328C34.2552 28.2812 34.2408 26.7505 33.2879 25.8146ZM30.7778 25.2707C32.6136 21.2105 31.8689 16.2904 28.5295 13.0103C25.2042 9.74406 20.2995 9.07968 16.2817 10.9585C16.2931 10.8368 16.2855 10.7154 16.2797 10.5946C20.4546 7.59653 26.2449 7.88642 29.973 11.5484C33.6833 15.1928 34.0939 20.9404 31.2163 25.1633C31.0675 25.1868 30.9201 25.2192 30.7778 25.2707ZM10.6981 24.9832C10.6981 24.9831 10.698 24.983 10.698 24.9829C10.6958 24.9838 10.6956 24.984 10.6981 24.9832Z" fill="white"/>
    <defs>
        <linearGradient id="paint0_linear_4_611" x1="41.5" y1="13.0001" x2="10.9912" y2="42.5555" gradientUnits="userSpaceOnUse">
            <stop stop-color="#B6A279"/>
            <stop offset="0.198712" stop-color="#D4B26E"/>
            <stop offset="0.373577" stop-color="#C7901B"/>
            <stop offset="0.566952" stop-color="#FFF5E0"/>
            <stop offset="0.776143" stop-color="#A17412"/>
            <stop offset="0.931916" stop-color="#FFE8B6"/>
            <stop offset="1" stop-color="#B29F77"/>
        </linearGradient>
        <radialGradient id="paint1_radial_4_611" cx="0" cy="0" r="1" gradientUnits="userSpaceOnUse" gradientTransform="translate(39.4699 33.0745) rotate(-138.22) scale(49.1786 74.3489)">
            <stop offset="0.00914537" stop-color="#363835"/>
            <stop offset="0.277881" stop-color="#6D6F70"/>
            <stop offset="0.985997" stop-color="#353638"/>
        </radialGradient>
        <linearGradient id="paint2_linear_4_611" x1="35.3783" y1="7.09578" x2="10.6995" y2="20.3937" gradientUnits="userSpaceOnUse">
            <stop stop-color="#FFFDE1"/>
            <stop offset="0.595335" stop-color="#886D49"/>
            <stop offset="1" stop-color="#CEB685"/>
        </linearGradient>
        <linearGradient id="paint3_linear_4_611" x1="37.1881" y1="24.8666" x2="4.38051" y2="22.909" gradientUnits="userSpaceOnUse">
            <stop stop-color="#B6A279"/>
            <stop offset="0.198712" stop-color="#D4B26E"/>
            <stop offset="0.373577" stop-color="#C7901B"/>
            <stop offset="0.566952" stop-color="#FFF5E0"/>
            <stop offset="0.776143" stop-color="#A17412"/>
            <stop offset="0.931916" stop-color="#FFE8B6"/>
            <stop offset="1" stop-color="#B29F77"/>
        </linearGradient>
    </defs>
</svg>
