<svg width="30" height="30" viewBox="0 0 30 30" fill="none" xmlns="http://www.w3.org/2000/svg">
    <path d="M24.5091 0H5.49093C2.45837 0 0 2.31043 0 5.16048V24.8395C0 27.6896 2.45837 30 5.49093 30H24.5091C27.5416 30 30 27.6896 30 24.8395V5.16048C30 2.31043 27.5416 0 24.5091 0Z" fill="url(#paint0_linear_4_537)"/>
    <path d="M24.5091 0H5.49093C2.45837 0 0 2.31043 0 5.16048V23.4855C0 26.3355 2.45837 28.6459 5.49093 28.6459H24.5091C27.5416 28.6459 30 26.3355 30 23.4855V5.16048C30 2.31043 27.5416 0 24.5091 0Z" fill="url(#paint1_linear_4_537)"/>
    <path d="M10.4764 16.7257C9.32325 16.7257 9.15788 15.4837 9.13762 14.2035L9.1365 13.8547C9.1365 13.5816 8.91517 13.4896 8.6683 13.3871C8.54304 13.3351 8.41121 13.2803 8.29837 13.1977M10.4764 16.7257L10.442 16.8319C10.4474 16.8336 10.4527 16.8354 10.4581 16.8372M10.4764 16.7257C10.9792 16.8889 11.3145 17.2984 11.4821 17.7911M10.4764 16.7257V16.8373C10.4703 16.8373 10.4642 16.8373 10.4581 16.8372M10.4581 16.8372C10.1568 16.834 9.9116 16.7504 9.7157 16.6002C9.51724 16.4481 9.37758 16.2338 9.27859 15.9861C9.08216 15.4945 9.03622 14.8451 9.02609 14.2053L9.02607 14.2039L9.02496 13.8551L9.02496 13.8547C9.02496 13.7774 9.00238 13.726 8.96764 13.685C8.93003 13.6407 8.87294 13.6026 8.79408 13.564C8.74213 13.5385 8.68853 13.5163 8.63011 13.492C8.59724 13.4784 8.56284 13.4641 8.52636 13.4483C8.48816 13.4317 8.44892 13.4139 8.40962 13.3942M10.4581 16.8372C10.9093 16.9899 11.2173 17.362 11.3752 17.8232M8.40962 13.3942L8.4403 13.3445L8.37616 13.2821C8.37542 13.2813 8.37468 13.2806 8.37396 13.2799C8.37503 13.2788 8.37613 13.2777 8.37725 13.2766L8.29837 13.1977M8.40962 13.3942C8.37847 13.3785 8.3473 13.3617 8.31658 13.3433C8.28989 13.3273 8.26355 13.3102 8.23788 13.2917C8.24393 13.309 8.26409 13.3286 8.29837 13.362C8.09835 13.6859 7.69121 13.7532 7.36314 13.6044C7.35628 13.642 7.3497 13.6796 7.3434 13.7173M8.40962 13.3942L8.39328 13.4206C8.16243 13.7944 7.70776 13.8687 7.3434 13.7173M8.29837 13.1977C8.25522 13.2409 8.23443 13.2617 8.23602 13.283L8.29837 13.1977ZM7.3434 13.7173C7.18008 14.6933 7.20476 15.6921 7.41662 16.6598C7.63921 17.6764 8.06387 18.6379 8.66536 19.4872C9.26686 20.3365 10.0329 21.0562 10.918 21.6036C11.7266 22.1036 12.6195 22.4506 13.552 22.6279M7.3434 13.7173C7.30761 13.7024 7.27268 13.6853 7.23893 13.6662C7.06719 14.6666 7.09038 15.6913 7.30766 16.6837C7.53345 17.7149 7.9642 18.6902 8.57434 19.5517C9.18447 20.4131 9.96153 21.1432 10.8594 21.6984C11.6469 22.1855 12.5133 22.5293 13.4184 22.7151L13.3641 22.688L13.552 22.6279M14.3668 22.5185C14.3721 22.5553 14.3778 22.5924 14.3841 22.63C14.2088 22.6311 14.0079 22.6371 13.8267 22.6699L13.7089 22.611L13.6881 22.6525C13.6712 22.6496 13.6544 22.6466 13.6375 22.6436C13.609 22.6385 13.5805 22.6333 13.552 22.6279M14.3668 22.5185C14.4061 22.5182 14.4439 22.5182 14.4795 22.5182C14.4139 22.0741 14.4139 21.6909 14.4139 21.2348L14.3485 21.3251L14.3484 21.325L14.3481 21.3248L14.3469 21.324L14.3426 21.3208L14.326 21.3087C14.3195 21.3038 14.3116 21.298 14.3023 21.2911M14.3668 22.5185C14.3049 22.0906 14.3024 21.7175 14.3023 21.2911M14.3668 22.5185C14.1367 22.5203 13.8526 22.5317 13.625 22.6045L13.552 22.6279M14.3023 21.2911C14.3023 21.2736 14.3023 21.256 14.3023 21.2383V21.2347H14.4139C14.4139 21.2347 12.4879 19.842 12.4879 19.0208C12.4879 18.6734 12.5327 18.3999 12.5656 18.2C12.6103 17.9271 12.6326 17.7911 12.4879 17.7911C12.3371 17.7911 12.1756 17.8335 12.0267 17.8726C11.7611 17.9424 11.5355 18.0016 11.4821 17.7911M14.3023 21.2911C14.2913 21.2829 14.2785 21.2733 14.264 21.2624C14.2107 21.2222 14.1347 21.164 14.0436 21.0916C13.8615 20.947 13.6183 20.7453 13.3746 20.5171C13.1315 20.2895 12.8852 20.0331 12.6989 19.7791C12.5158 19.5297 12.3763 19.2638 12.3763 19.0208C12.3763 18.6636 12.4228 18.3807 12.4557 18.1807C12.4616 18.1448 12.467 18.1116 12.4717 18.0811C12.4794 18.0306 12.4847 17.9898 12.4868 17.9565C12.4884 17.9312 12.4879 17.914 12.4866 17.9027M11.4821 17.7911L11.3765 17.827C11.3761 17.8258 11.3757 17.8245 11.3752 17.8232M11.4821 17.7911L11.374 17.8185C11.3744 17.8201 11.3748 17.8217 11.3752 17.8232M11.3752 17.8232C11.3897 17.8777 11.4148 17.9261 11.4533 17.9645C11.4931 18.0041 11.5409 18.0268 11.5898 18.0383C11.6818 18.0599 11.7874 18.044 11.8826 18.0233C11.9358 18.0117 11.9982 17.9954 12.06 17.9792C12.1054 17.9673 12.1505 17.9556 12.1913 17.9458C12.2958 17.9209 12.3953 17.9028 12.4866 17.9027M12.4866 17.9027C12.4862 17.8987 12.4856 17.8954 12.485 17.8928C12.4844 17.8902 12.484 17.8892 12.484 17.8892C12.4841 17.8892 12.485 17.8916 12.4879 17.8948C12.4892 17.8963 12.491 17.898 12.4933 17.8997C12.4974 17.9028 12.5003 17.9037 12.5004 17.9037C12.5006 17.9037 12.4972 17.9027 12.4879 17.9027C12.4875 17.9027 12.487 17.9027 12.4866 17.9027ZM14.5804 17.133C14.8685 17.2549 15.1572 17.5158 15.4261 17.7586C15.703 18.0088 15.9588 18.24 16.1711 18.2805C16.3674 18.3201 16.3979 18.485 16.4267 18.6406C16.4593 18.8169 16.4896 18.9811 16.7561 18.9375M14.5804 17.133L16.9103 11.343C16.9067 11.3508 16.9031 11.3586 16.8995 11.3663C16.5863 11.3098 16.2214 11.3177 15.9236 11.3899C15.8461 11.4271 15.8571 11.4994 15.8674 11.5668C15.8795 11.646 15.8905 11.7184 15.7549 11.7184C14.9167 11.8826 14.1641 11.4731 14.4139 11.0625M14.5804 17.133L14.6238 17.0303C14.6248 17.0307 14.6258 17.0311 14.6268 17.0315M14.5804 17.133L14.6295 17.0328C14.6286 17.0324 14.6277 17.032 14.6268 17.0315M16.7561 18.9375C17.007 18.8565 17.3422 19.0208 17.5099 19.266M16.7561 18.9375L16.7381 18.8274C16.7356 18.8278 16.7331 18.8282 16.7307 18.8286M16.7561 18.9375L16.7219 18.8314C16.7248 18.8304 16.7277 18.8295 16.7307 18.8286M17.5099 19.266C17.7619 19.5945 17.5943 20.0063 17.259 20.2515M17.5099 19.266L17.602 19.2031C17.6014 19.2022 17.6008 19.2014 17.6002 19.2005M17.5099 19.266L17.5984 19.1981C17.599 19.1989 17.5996 19.1997 17.6002 19.2005M17.259 20.2515C16.7749 20.7258 16.6019 21.2765 16.365 22.3461C16.4036 22.3416 16.4415 22.3445 16.4779 22.3523M17.259 20.2515L17.3249 20.3415C17.3271 20.3399 17.3293 20.3383 17.3315 20.3366M17.259 20.2515L17.3371 20.3312C17.3352 20.333 17.3334 20.3348 17.3315 20.3366M16.4779 22.3523C16.47 22.388 16.462 22.4243 16.4539 22.4612C16.5611 22.484 16.674 22.5725 16.7719 22.6736M16.4779 22.3523C16.525 22.3624 16.5696 22.3809 16.6098 22.4028C16.6799 22.4408 16.7466 22.494 16.8065 22.5509M16.4779 22.3523C16.7121 21.2979 16.8801 20.7817 17.3315 20.3366M16.7719 22.6736C18.0327 22.3818 19.2024 21.7842 20.1777 20.9335C21.0847 20.1423 21.7977 19.1549 22.2633 18.0476C22.2018 18.1013 22.1397 18.1499 22.0781 18.1934M16.7719 22.6736L16.852 22.5961C16.8374 22.5809 16.8222 22.5658 16.8065 22.5509M16.7719 22.6736L16.7467 22.565C16.7667 22.5603 16.7866 22.5556 16.8065 22.5509M22.0781 18.1934C22.1099 18.1229 22.1408 18.0519 22.1706 17.9804C21.5894 18.4758 21.0137 18.466 21.21 17.9509M22.0781 18.1934C21.8629 18.345 21.6518 18.4334 21.4786 18.4524C21.344 18.4672 21.202 18.4416 21.1191 18.3297C21.0454 18.2302 21.0453 18.0984 21.0889 17.9597M22.0781 18.1934C21.6191 19.2084 20.9466 20.1148 20.1044 20.8495C19.1583 21.6747 18.0267 22.2583 16.8065 22.5509M21.21 17.9509C20.958 17.4593 20.6228 17.0475 20.2043 16.638M21.21 17.9509L21.1058 17.9111C21.0996 17.9274 21.0939 17.9436 21.0889 17.9597M21.21 17.9509L21.1107 18.0018C21.1035 17.9877 21.0962 17.9737 21.0889 17.9597M20.2043 16.638C19.4494 15.9821 18.7789 14.7502 21.1256 13.0267M20.2043 16.638L20.1262 16.7177C20.127 16.7185 20.1278 16.7193 20.1286 16.72M20.2043 16.638L20.1311 16.7222C20.1303 16.7215 20.1294 16.7207 20.1286 16.72M21.1256 13.0267C20.8011 12.201 21.4841 11.4236 22.0409 11.7281C22.0174 11.6775 21.9933 11.6271 21.9687 11.577M21.1256 13.0267L21.0596 12.9368C21.0371 12.9534 21.0148 12.9699 20.9928 12.9864M21.1256 13.0267L21.0218 13.0675C21.0112 13.0404 21.0015 13.0134 20.9928 12.9864M21.9687 11.577C22.0228 11.5936 22.0759 11.6177 22.1273 11.6494C21.5452 10.4109 20.6497 9.34401 19.5276 8.55557C18.4527 7.80032 17.2079 7.3273 15.9075 7.17649C15.9983 7.22043 16.0815 7.2694 16.157 7.32226M21.9687 11.577C21.3942 10.4071 20.5333 9.39857 19.4634 8.64684C18.4763 7.95323 17.3438 7.50109 16.157 7.32226M21.9687 11.577C21.9021 11.5566 21.8339 11.5475 21.7654 11.5493C21.5721 11.5546 21.3916 11.6466 21.2503 11.7877C20.9832 12.0543 20.8397 12.5111 20.9928 12.9864M16.157 7.32226C16.0636 7.30819 15.97 7.29582 15.876 7.28515C16.8075 7.74715 16.7974 8.74328 15.9497 8.6959C15.9497 8.73241 15.9497 8.76966 15.9496 8.80758M16.157 7.32226C16.4775 7.5469 16.6576 7.84164 16.6874 8.11794C16.7096 8.32337 16.6469 8.52076 16.4899 8.65336C16.3584 8.7644 16.174 8.81889 15.9496 8.80758M15.9496 8.80758C15.9134 8.80575 15.8762 8.80222 15.8381 8.79694C15.8374 9.18149 15.8306 9.62878 15.7549 10.077M15.9496 8.80758C15.9489 9.1895 15.9415 9.63963 15.8654 10.0921M15.7549 10.077C15.7038 10.5737 15.3157 10.6803 14.9615 10.7776C14.73 10.8411 14.513 10.9007 14.4139 11.0625M15.7549 10.077L15.8649 10.0956C15.8651 10.0944 15.8653 10.0932 15.8654 10.0921M15.7549 10.077L15.8658 10.0884C15.8657 10.0896 15.8656 10.0909 15.8654 10.0921M14.4139 11.0625L14.509 11.1208C14.509 11.1207 14.509 11.1207 14.5091 11.1207M14.4139 11.0625L14.5092 11.1205C14.5091 11.1205 14.5091 11.1206 14.5091 11.1207M14.5091 11.1207C14.467 11.1899 14.4686 11.251 14.4992 11.31C14.5332 11.3755 14.6081 11.4461 14.727 11.5066C14.9636 11.627 15.3354 11.6869 15.7334 11.6089L15.744 11.6068H15.7549C15.7569 11.6068 15.7587 11.6068 15.7605 11.6068M14.5091 11.1207C14.5515 11.0515 14.6312 11.0011 14.7554 10.9561C14.8163 10.934 14.8833 10.9148 14.9559 10.8948C14.9673 10.8916 14.9788 10.8885 14.9905 10.8853C15.0519 10.8684 15.1167 10.8506 15.1804 10.8305C15.3314 10.7829 15.4914 10.718 15.6196 10.6028C15.7507 10.485 15.8411 10.3214 15.8654 10.0921M15.7605 11.6068C15.7602 11.6047 15.7599 11.6026 15.7596 11.6002C15.7591 11.5967 15.7584 11.5925 15.7577 11.5877C15.7531 11.5584 15.7451 11.5081 15.7506 11.4621C15.7542 11.4318 15.7638 11.3975 15.7857 11.3649C15.808 11.3319 15.8388 11.3069 15.8754 11.2893L15.8859 11.2842L15.8973 11.2815C16.2488 11.1963 16.6853 11.1963 17.0377 11.2815L17.1698 11.3134L17.1127 11.4367C16.7693 12.179 16.3747 12.8967 15.9319 13.5844L15.9301 13.5873L15.93 13.5872C15.9026 13.6271 15.8849 13.6831 15.878 13.7581C15.8711 13.833 15.8755 13.9193 15.8857 14.0139C15.8929 14.0803 15.9025 14.1468 15.9122 14.2146C15.9165 14.2442 15.9208 14.274 15.9249 14.3041C15.9381 14.4006 15.9497 14.4993 15.9497 14.5894C15.9497 14.9002 15.9313 15.1311 15.8965 15.2951C15.8791 15.3771 15.8567 15.4467 15.8278 15.5026C15.7991 15.5583 15.7603 15.6073 15.7066 15.6373C15.5878 15.7037 15.4691 15.6448 15.3892 15.5822C15.3045 15.5158 15.2198 15.4135 15.1396 15.301C14.9986 15.1031 14.8541 14.8478 14.7318 14.632C14.7142 14.6009 14.6971 14.5706 14.6804 14.5414C14.6133 14.4234 14.5559 14.3252 14.5108 14.2593C14.5033 14.2483 14.4965 14.2388 14.4905 14.2307C14.4698 14.2386 14.4489 14.244 14.4286 14.2476C14.3784 14.2567 14.3235 14.2568 14.2688 14.2526C14.1595 14.2441 14.0316 14.2164 13.9057 14.1855C13.8483 14.1715 13.7927 14.1571 13.7381 14.143C13.6676 14.1247 13.5988 14.1069 13.5302 14.0909C13.41 14.0627 13.3113 14.045 13.2416 14.045C13.219 14.045 13.2061 14.0502 13.1974 14.0558C13.1877 14.062 13.1765 14.0729 13.1643 14.0932C13.1376 14.138 13.12 14.2025 13.0978 14.2891L13.0957 14.2973C13.0763 14.3733 13.0519 14.4685 13.007 14.544C12.9825 14.5852 12.9492 14.6255 12.9026 14.6552C12.855 14.6856 12.7999 14.7009 12.7387 14.7009C12.5552 14.7009 12.4308 14.6889 12.3474 14.6758C12.3478 14.7916 12.3583 14.9485 12.3719 15.1516C12.377 15.2285 12.3826 15.312 12.3883 15.4024C12.4089 15.732 12.4295 16.1449 12.4295 16.6403C12.4295 16.6462 12.4299 16.6505 12.4304 16.6534M15.7605 11.6068C15.7622 11.6197 15.7627 11.6273 15.7625 11.6322C15.7624 11.6375 15.7616 11.6315 15.7672 11.6219C15.774 11.6103 15.7818 11.6057 15.7849 11.6043M15.7605 11.6068C15.7748 11.6065 15.7821 11.6051 15.7849 11.6043M20.9928 12.9864C19.8588 13.8353 19.4237 14.5844 19.3904 15.227C19.3565 15.8815 19.7416 16.3831 20.1286 16.72M20.1286 16.72C20.5282 17.1114 20.847 17.5012 21.0889 17.9597M17.3315 20.3366C17.5115 20.203 17.6517 20.0218 17.7115 19.822C17.7729 19.6171 17.7483 19.3952 17.6002 19.2005M17.6002 19.2005C17.5042 19.0612 17.3629 18.9469 17.2102 18.8778C17.0604 18.81 16.8881 18.7809 16.7307 18.8286M16.7307 18.8286C16.6331 18.8432 16.606 18.8192 16.5951 18.8071C16.5731 18.7824 16.5584 18.737 16.542 18.6506C16.5402 18.6414 16.5385 18.6318 16.5366 18.6217C16.5236 18.5507 16.5069 18.4592 16.4687 18.3812C16.42 18.2818 16.3356 18.1999 16.1932 18.1712L16.192 18.1709C16.1134 18.1559 16.0152 18.1028 15.8951 18.013C15.7769 17.9247 15.65 17.8106 15.513 17.6868L15.4929 17.6687C15.2311 17.4321 14.9316 17.1614 14.6268 17.0315M14.6268 17.0315C14.5526 16.9949 14.4759 16.9436 14.391 16.8832C14.3693 16.8678 14.347 16.8517 14.3242 16.8352C14.2589 16.7881 14.1892 16.7378 14.1175 16.6911C13.9218 16.5636 13.6903 16.4477 13.407 16.4477C13.2868 16.4477 13.1545 16.4767 13.0309 16.5105C12.9683 16.5276 12.9056 16.5466 12.846 16.5648L12.8333 16.5687C12.7778 16.5856 12.7252 16.6017 12.6756 16.6155C12.5635 16.6467 12.4866 16.6604 12.4418 16.6553C12.4367 16.6548 12.433 16.654 12.4304 16.6534M12.4304 16.6534C12.4267 16.6525 12.4253 16.6517 12.4253 16.6516C12.4253 16.6516 12.4267 16.6524 12.4287 16.6544C12.431 16.6569 12.4317 16.6587 12.4317 16.6588C12.4317 16.6588 12.431 16.6573 12.4304 16.6534ZM15.7849 11.6043C15.7857 11.604 15.7862 11.6038 15.7863 11.6039L15.7849 11.6043ZM21.4428 8.55717C19.7341 6.84842 17.4165 5.88846 15 5.88846C12.5835 5.88846 10.2659 6.84842 8.55717 8.55717C6.84842 10.2659 5.88846 12.5835 5.88846 15C5.88846 17.4165 6.84842 19.7341 8.55717 21.4428C10.2659 23.1516 12.5835 24.1115 15 24.1115C17.4165 24.1115 19.7341 23.1516 21.4428 21.4428C23.1516 19.7341 24.1115 17.4165 24.1115 15C24.1115 12.5835 23.1516 10.2659 21.4428 8.55717Z" fill="url(#paint2_linear_4_537)" stroke="#735514" stroke-width="0.223089"/>
    <path d="M15 5C17.3869 5 19.6761 5.94821 21.364 7.63604C23.0518 9.32387 24 11.6131 24 14C24 16.3869 23.0518 18.6761 21.364 20.364C19.6761 22.0518 17.3869 23 15 23C12.6131 23 10.3239 22.0518 8.63604 20.364C6.94821 18.6761 6 16.3869 6 14C6 11.6131 6.94821 9.32387 8.63604 7.63604C10.3239 5.94821 12.6131 5 15 5ZM8.29837 12.1977C8.21513 12.281 8.21513 12.281 8.29837 12.362C8.07675 12.7209 7.60088 12.7648 7.26 12.5487C7.06567 13.5864 7.08188 14.6524 7.30766 15.6837C7.53345 16.7149 7.9642 17.6902 8.57434 18.5517C9.18447 19.4131 9.96153 20.1432 10.8594 20.6984C11.7572 21.2537 12.7575 21.6228 13.8007 21.7839L13.794 21.7782L13.659 21.7108C13.9121 21.6297 14.2474 21.6297 14.4971 21.6297C14.4139 21.137 14.4139 20.7286 14.4139 20.2347C14.4139 20.2347 12.4879 18.842 12.4879 18.0208C12.4879 17.1995 12.7388 16.7911 12.4879 16.7911C12.0683 16.7911 11.5654 17.1196 11.4821 16.7911C11.3145 16.2984 10.9792 15.8889 10.4764 15.7257C9.32325 15.7257 9.15788 14.4837 9.13762 13.2035L9.1365 12.8547C9.1365 12.443 8.63363 12.443 8.29837 12.1977ZM15.4759 6.13963L15.5726 6.1655C16.8484 6.55475 16.8855 7.84175 15.8381 7.68425C15.8381 8.09262 15.8381 8.58425 15.7549 9.077C15.6705 9.89825 14.6648 9.653 14.4139 10.0625C14.1641 10.4731 14.9167 10.8826 15.7549 10.7184C16.0057 10.7184 15.7549 10.4709 15.9236 10.3899C16.2578 10.3089 16.6763 10.3089 17.0115 10.3899C16.6702 11.1275 16.2781 11.8406 15.8381 12.524C15.6694 12.7693 15.8381 13.262 15.8381 13.5894C15.8381 16.052 14.6648 13.0156 14.4971 13.0977C14.3295 13.262 13.5769 12.9335 13.2416 12.9335C12.9064 12.9335 13.0729 13.5894 12.7387 13.5894C12.0682 13.5894 12.2359 13.4251 12.2359 13.6704C12.2359 13.9989 12.318 14.6559 12.318 15.6403C12.318 15.9688 12.9885 15.5592 13.407 15.5592C13.9099 15.5592 14.2451 15.9688 14.5804 16.133C15.1654 16.3805 15.7526 17.2006 16.1711 17.2805C16.5896 17.3649 16.2544 18.0196 16.7561 17.9375C17.007 17.8565 17.3422 18.0208 17.5099 18.266C17.7619 18.5945 17.5943 19.0063 17.259 19.2515C16.7573 19.7431 16.5896 20.3169 16.3387 21.4655C16.476 21.4205 16.638 21.5352 16.7719 21.6736C18.0327 21.3818 19.2024 20.7842 20.1777 19.9335C21.153 19.0828 21.9039 18.0052 22.3643 16.7956C21.7275 17.4717 20.9918 17.5235 21.21 16.9509C20.958 16.4593 20.6228 16.0475 20.2043 15.638C19.4494 14.9821 18.7789 13.7502 21.1256 12.0267C20.7622 11.102 21.6623 10.238 22.2337 10.886C21.6574 9.54675 20.7205 8.39379 19.5276 7.55557C18.3346 6.71735 16.9323 6.22678 15.477 6.1385L15.4759 6.13963Z" fill="url(#paint3_linear_4_537)"/>
    <defs>
        <linearGradient id="paint0_linear_4_537" x1="28.5" y1="26.4531" x2="0.000202896" y2="25.9417" gradientUnits="userSpaceOnUse">
            <stop stop-color="#76540D"/>
            <stop offset="0.177025" stop-color="#D4B26E"/>
            <stop offset="0.373577" stop-color="#C7901B"/>
            <stop offset="0.566952" stop-color="#FFF5E0"/>
            <stop offset="0.776143" stop-color="#A17412"/>
            <stop offset="0.931916" stop-color="#FFE8B6"/>
            <stop offset="1" stop-color="#A07418"/>
        </linearGradient>
        <linearGradient id="paint1_linear_4_537" x1="15" y1="28.6459" x2="15" y2="0" gradientUnits="userSpaceOnUse">
            <stop stop-color="#A27616"/>
            <stop offset="1" stop-color="#FAECCF"/>
        </linearGradient>
        <linearGradient id="paint2_linear_4_537" x1="24" y1="15.579" x2="6" y2="15.579" gradientUnits="userSpaceOnUse">
            <stop stop-color="#A97F24"/>
            <stop offset="0.151042" stop-color="#7C5A13"/>
            <stop offset="0.5" stop-color="#EFDEB8"/>
            <stop offset="0.921875" stop-color="#7D5B14"/>
            <stop offset="1" stop-color="#B38D3A"/>
        </linearGradient>
        <linearGradient id="paint3_linear_4_537" x1="14.9945" y1="23" x2="14.9945" y2="5" gradientUnits="userSpaceOnUse">
            <stop stop-color="#FFEEC9"/>
            <stop offset="1" stop-color="#FFFDF8"/>
        </linearGradient>
    </defs>
</svg>
