<svg width="24" height="22" viewBox="0 0 24 22" fill="none" xmlns="http://www.w3.org/2000/svg">
    <g clip-path="url(#clip0_4_553)">
        <path d="M11.5079 21.1157C11.4239 21.1214 11.3397 21.1214 11.2557 21.1157C10.8796 21.0811 10.5162 20.9652 10.1921 20.7764C9.86803 20.5876 9.59151 20.3307 9.38279 20.0246L7.80399 17.6791H2.56933C2.23091 17.6791 1.89583 17.6141 1.58332 17.4879C1.27081 17.3617 0.987041 17.1767 0.748302 16.9435C0.509562 16.7104 0.320559 16.4337 0.192148 16.1294C0.0637366 15.8251 -0.00155334 15.4991 2.80542e-05 15.1702V2.4739C2.80542e-05 1.81778 0.268192 1.18854 0.745527 0.72459C1.22286 0.260643 1.87027 0 2.54532 0L21.4669 0C22.142 0 22.7894 0.260643 23.2667 0.72459C23.744 1.18854 24.0122 1.81778 24.0122 2.4739V15.1702C24.0106 15.8315 23.7392 16.4652 23.2576 16.9322C22.7759 17.3993 22.1233 17.6616 21.4429 17.6616H16.0942L13.3088 20.4214C12.8254 20.8734 12.1786 21.1228 11.5079 21.1157ZM2.54532 2.12382C2.44979 2.12382 2.35818 2.16071 2.29063 2.22636C2.22308 2.29201 2.18514 2.38106 2.18514 2.4739V15.1702C2.18514 15.2692 2.22561 15.3642 2.29767 15.4342C2.36972 15.5042 2.46744 15.5436 2.56933 15.5436H8.36827C8.54797 15.5424 8.72511 15.5851 8.88347 15.6676C9.04183 15.7502 9.17635 15.87 9.27473 16.0162L11.2017 18.8227C11.2315 18.8666 11.2714 18.9032 11.3183 18.9296C11.3652 18.9559 11.4178 18.9713 11.4718 18.9744C11.5254 18.9812 11.5799 18.9757 11.631 18.9585C11.682 18.9413 11.7283 18.9128 11.766 18.8752L14.8756 15.8528C14.9765 15.7548 15.0963 15.677 15.2281 15.6239C15.36 15.5709 15.5013 15.5436 15.644 15.5436H21.4429C21.5448 15.5436 21.6425 15.5042 21.7146 15.4342C21.7866 15.3642 21.8271 15.2692 21.8271 15.1702V2.4739C21.8271 2.38106 21.7892 2.29201 21.7216 2.22636C21.6541 2.16071 21.5624 2.12382 21.4669 2.12382H2.54532Z" fill="#F3B868" fill-opacity="0.5"/>
        <path d="M5.46277 9.54554C5.46277 9.92002 5.61582 10.2792 5.88827 10.544C6.16071 10.8088 6.53022 10.9575 6.91551 10.9575C7.3008 10.9575 7.67031 10.8088 7.94275 10.544C8.21519 10.2792 8.36824 9.92002 8.36824 9.54554C8.36824 9.17105 8.21519 8.81191 7.94275 8.54711C7.67031 8.28231 7.3008 8.13354 6.91551 8.13354C6.53022 8.13354 6.16071 8.28231 5.88827 8.54711C5.61582 8.81191 5.46277 9.17105 5.46277 9.54554Z" fill="#F3B868"/>
        <path d="M10.5533 9.54554C10.5533 9.92002 10.7064 10.2792 10.9788 10.544C11.2513 10.8088 11.6208 10.9575 12.0061 10.9575C12.3914 10.9575 12.7609 10.8088 13.0333 10.544C13.3058 10.2792 13.4588 9.92002 13.4588 9.54554C13.4588 9.17105 13.3058 8.81191 13.0333 8.54711C12.7609 8.28231 12.3914 8.13354 12.0061 8.13354C11.6208 8.13354 11.2513 8.28231 10.9788 8.54711C10.7064 8.81191 10.5533 9.17105 10.5533 9.54554Z" fill="#F3B868"/>
        <path d="M15.6439 9.54554C15.6439 9.92002 15.797 10.2792 16.0694 10.544C16.3419 10.8088 16.7114 10.9575 17.0967 10.9575C17.4819 10.9575 17.8515 10.8088 18.1239 10.544C18.3963 10.2792 18.5494 9.92002 18.5494 9.54554C18.5494 9.17105 18.3963 8.81191 18.1239 8.54711C17.8515 8.28231 17.4819 8.13354 17.0967 8.13354C16.7114 8.13354 16.3419 8.28231 16.0694 8.54711C15.797 8.81191 15.6439 9.17105 15.6439 9.54554Z" fill="#F3B868"/>
    </g>
    <defs>
        <clipPath id="clip0_4_553">
            <rect width="24" height="21.12" fill="white"/>
        </clipPath>
    </defs>
</svg>
