<svg width="30" height="30" viewBox="0 0 30 30" fill="none" xmlns="http://www.w3.org/2000/svg">
    <path d="M24.5091 0H5.49093C2.45837 0 0 2.31043 0 5.16048V24.8395C0 27.6896 2.45837 30 5.49093 30H24.5091C27.5416 30 30 27.6896 30 24.8395V5.16048C30 2.31043 27.5416 0 24.5091 0Z" fill="url(#paint0_linear_4_522)"/>
    <path d="M24.5091 0H5.49093C2.45837 0 0 2.31043 0 5.16048V23.4855C0 26.3355 2.45837 28.6459 5.49093 28.6459H24.5091C27.5416 28.6459 30 26.3355 30 23.4855V5.16048C30 2.31043 27.5416 0 24.5091 0Z" fill="url(#paint1_linear_4_522)"/>
    <path d="M15.3231 22.3815L15.3231 22.3814L24 19.5H24.1115V19.4996C24.1115 19.4995 24.1115 19.4994 24.1115 19.4993L24.1115 9.67735C24.1115 9.2336 23.7281 8.88846 23.2713 8.88846H6.72872C6.27191 8.88846 5.88846 9.2336 5.88846 9.67735V19.5022C5.88846 19.9459 6.27191 20.2911 6.72872 20.2911H12.1059C12.3681 20.2911 12.6203 20.3913 12.811 20.5713L14.7285 22.3815L14.7285 22.3816C14.7309 22.3838 14.7332 22.3858 14.7357 22.3878C14.8004 22.4776 14.9091 22.5322 15.0258 22.5322C15.1438 22.5322 15.2492 22.4768 15.3141 22.3891C15.3172 22.3868 15.3202 22.3842 15.3231 22.3815ZM15.1663 22.3804C15.1658 22.38 15.1654 22.3796 15.165 22.3792C15.165 22.3792 15.165 22.3792 15.165 22.3792C15.1654 22.3796 15.1659 22.38 15.1663 22.3804ZM9.75981 13.2436C9.75981 12.6267 10.3019 12.1115 10.9862 12.1115C11.6705 12.1115 12.2126 12.6267 12.2126 13.2436C12.2126 13.8605 11.6705 14.3757 10.9862 14.3757C10.3019 14.3757 9.75981 13.8605 9.75981 13.2436ZM13.7736 13.2436C13.7736 12.6267 14.3157 12.1115 15 12.1115C15.6843 12.1115 16.2264 12.6267 16.2264 13.2436C16.2264 13.8605 15.6843 14.3757 15 14.3757C14.3157 14.3757 13.7736 13.8605 13.7736 13.2436ZM17.7874 13.2436C17.7874 12.6267 18.3295 12.1115 19.0138 12.1115C19.7003 12.1115 20.2402 12.6266 20.2402 13.2436C20.2402 13.8605 19.6981 14.3757 19.0138 14.3757C18.3295 14.3757 17.7874 13.8605 17.7874 13.2436Z" fill="url(#paint2_linear_4_522)" stroke="#735514" stroke-width="0.223089"/>
    <path d="M23.2713 18.7589H17.4931L15.2437 20.8824V20.8715C15.2038 20.9477 15.1218 21 15.0258 21C14.9297 21 14.8453 20.9477 14.8079 20.8715V20.8824L12.5584 18.7589H6.72872C6.3257 18.7589 6 18.4561 6 18.0815V7.67735C6 7.30274 6.3257 7 6.72872 7H23.2713C23.6743 7 24 7.30274 24 7.67735V18.0793C24.0023 18.454 23.6743 18.7589 23.2713 18.7589ZM10.9862 11.6347C10.2481 11.6347 9.64827 12.1923 9.64827 12.8783C9.64827 13.5644 10.2481 14.122 10.9862 14.122C11.7243 14.122 12.3241 13.5644 12.3241 12.8783C12.3241 12.1923 11.7243 11.6347 10.9862 11.6347ZM15 11.6347C14.2619 11.6347 13.6621 12.1923 13.6621 12.8783C13.6621 13.5644 14.2619 14.122 15 14.122C15.7381 14.122 16.3379 13.5644 16.3379 12.8783C16.3379 12.1923 15.7381 11.6347 15 11.6347ZM19.0138 11.6347C18.2757 11.6347 17.6759 12.1923 17.6759 12.8783C17.6759 13.5644 18.2757 14.122 19.0138 14.122C19.7519 14.122 20.3517 13.5644 20.3517 12.8783C20.3517 12.1923 19.7542 11.6347 19.0138 11.6347Z" fill="url(#paint3_linear_4_522)"/>
    <defs>
        <linearGradient id="paint0_linear_4_522" x1="28.5" y1="26.4531" x2="0.000202896" y2="25.9417" gradientUnits="userSpaceOnUse">
            <stop stop-color="#76540D"/>
            <stop offset="0.177025" stop-color="#D4B26E"/>
            <stop offset="0.373577" stop-color="#C7901B"/>
            <stop offset="0.566952" stop-color="#FFF5E0"/>
            <stop offset="0.776143" stop-color="#A17412"/>
            <stop offset="0.931916" stop-color="#FFE8B6"/>
            <stop offset="1" stop-color="#A07418"/>
        </linearGradient>
        <linearGradient id="paint1_linear_4_522" x1="15" y1="28.6459" x2="15" y2="0" gradientUnits="userSpaceOnUse">
            <stop stop-color="#A27616"/>
            <stop offset="1" stop-color="#FAECCF"/>
        </linearGradient>
        <linearGradient id="paint2_linear_4_522" x1="24" y1="16.2581" x2="6" y2="16.2581" gradientUnits="userSpaceOnUse">
            <stop stop-color="#A97F24"/>
            <stop offset="0.151042" stop-color="#7C5A13"/>
            <stop offset="0.5" stop-color="#EFDEB8"/>
            <stop offset="0.921875" stop-color="#7D5B14"/>
            <stop offset="1" stop-color="#B38D3A"/>
        </linearGradient>
        <linearGradient id="paint3_linear_4_522" x1="14.9945" y1="21" x2="14.9945" y2="7" gradientUnits="userSpaceOnUse">
            <stop stop-color="#FFEEC9"/>
            <stop offset="1" stop-color="#FFFDF8"/>
        </linearGradient>
    </defs>
</svg>
