<svg width="42" height="39" viewBox="0 0 42 39" fill="none" xmlns="http://www.w3.org/2000/svg">
<path d="M21.3601 39.0001C32.2732 39.0001 41.1201 30.7353 41.1201 20.5401C41.1201 10.3449 32.2732 2.08008 21.3601 2.08008C10.447 2.08008 1.6001 10.3449 1.6001 20.5401C1.6001 30.7353 10.447 39.0001 21.3601 39.0001Z" fill="url(#paint0_linear_4_602)"/>
<path d="M39.02 18.46C39.02 28.3475 30.4296 36.42 19.76 36.42C9.0904 36.42 0.5 28.3475 0.5 18.46C0.5 8.57247 9.0904 0.5 19.76 0.5C30.4296 0.5 39.02 8.57247 39.02 18.46Z" fill="url(#paint1_radial_4_602)" stroke="url(#paint2_linear_4_602)"/>
<path fill-rule="evenodd" clip-rule="evenodd" d="M30.8246 10.623L27.3627 11.5879C29.4387 13.4935 30.7777 16.069 31.1452 18.8629C31.5126 21.6569 30.885 24.491 29.3723 26.8686L25.7201 32.5947C25.2543 33.3227 24.5188 33.8362 23.6749 34.0226C22.831 34.209 21.9476 34.053 21.2185 33.589L6.50065 24.2017C5.7743 23.7354 5.26223 23.0004 5.07648 22.1575C4.89074 21.3146 5.04644 20.4324 5.50952 19.704L9.16172 13.9779C10.6911 11.5855 13.0193 9.81294 15.7324 8.97536C18.4455 8.13778 21.3678 8.28947 23.9796 9.40346L23.3962 5.88505C23.3649 5.69445 23.3895 5.49886 23.467 5.32193C23.5445 5.145 23.6715 4.9943 23.8328 4.88804C23.9941 4.78179 24.1828 4.72452 24.3759 4.72317C24.5691 4.72182 24.7585 4.77643 24.9213 4.88042L31.0938 8.8174C31.2571 8.92092 31.3868 9.06961 31.4672 9.24542C31.5476 9.42124 31.5752 9.61661 31.5467 9.80782C31.5182 9.99902 31.4348 10.1778 31.3066 10.3226C31.1784 10.4673 31.011 10.5716 30.8246 10.623ZM26.0807 9.8669L28.1299 9.29903L25.7329 7.77018L26.0807 9.8669ZM23.2447 32.072C23.571 32.0001 23.8553 31.8016 24.0354 31.5201L27.6822 25.7906C28.4072 24.685 28.9054 23.4465 29.1481 22.1468C29.3907 20.8471 29.3728 19.5122 29.0955 18.2195C28.8182 16.9268 28.287 15.7021 27.5327 14.6162C26.7784 13.5304 25.816 12.6052 24.7013 11.8943C23.5866 11.1833 22.3419 10.7007 21.0392 10.4746C19.7366 10.2484 18.402 10.2832 17.113 10.5768C15.8239 10.8705 14.6059 11.4171 13.5297 12.1851C12.4536 12.9531 11.5406 13.9272 10.8438 15.0508L7.1916 20.7769C7.01245 21.0585 6.95232 21.3998 7.0244 21.7257C7.09647 22.0516 7.29488 22.3357 7.57609 22.5156L22.2953 31.9038C22.577 32.0834 22.9185 32.1439 23.2447 32.072ZM17.3892 20.7197L15.1176 19.2708C14.9289 19.1389 14.7985 18.9392 14.7535 18.7134C14.7086 18.4876 14.7526 18.2532 14.8764 18.0591C15.0002 17.8649 15.1943 17.7262 15.418 17.6717C15.6417 17.6173 15.8777 17.6513 16.0769 17.7668L18.3485 19.2156L19.2002 17.8802L16.9287 16.4314C16.74 16.2995 16.6095 16.0998 16.5646 15.874C16.5196 15.6482 16.5637 15.4137 16.6875 15.2196C16.8113 15.0255 17.0053 14.8867 17.229 14.8323C17.4527 14.7778 17.6888 14.8119 17.888 14.9274L19.8048 16.1499L19.4114 14.3657C19.3605 14.1357 19.4031 13.895 19.5297 13.6964C19.6564 13.4978 19.8568 13.3577 20.0867 13.3068C20.3167 13.256 20.5575 13.2985 20.7561 13.4252C20.9546 13.5519 21.0948 13.7522 21.1456 13.9822L21.5615 15.868L23.4469 15.45C23.5607 15.4248 23.6784 15.4223 23.7933 15.4426C23.9081 15.4629 24.0178 15.5056 24.1162 15.5683C24.2145 15.6311 24.2995 15.7125 24.3664 15.8081C24.4332 15.9037 24.4806 16.0115 24.5057 16.1253C24.5309 16.2392 24.5334 16.3569 24.5131 16.4718C24.4928 16.5866 24.4501 16.6963 24.3874 16.7947C24.3246 16.893 24.2432 16.978 24.1476 17.0448C24.052 17.1117 23.9442 17.159 23.8304 17.1842L22.0466 17.5798L23.9351 18.7843C24.0393 18.8447 24.1302 18.9256 24.2023 19.022C24.2744 19.1185 24.3262 19.2285 24.3547 19.3455C24.3832 19.4625 24.3877 19.5841 24.368 19.7028C24.3483 19.8216 24.3047 19.9352 24.24 20.0367C24.1752 20.1383 24.0906 20.2256 23.9912 20.2936C23.8918 20.3616 23.7797 20.4087 23.6616 20.4322C23.5435 20.4558 23.4218 20.4551 23.304 20.4304C23.1861 20.4057 23.0745 20.3574 22.9758 20.2884L20.7042 18.8395L19.8525 20.1749L22.1241 21.6238C22.2282 21.6842 22.3191 21.765 22.3912 21.8615C22.4633 21.9579 22.5152 22.0679 22.5437 22.1849C22.5722 22.3019 22.5767 22.4235 22.557 22.5423C22.5372 22.6611 22.4937 22.7747 22.4289 22.8762C22.3642 22.9777 22.2796 23.0651 22.1802 23.1331C22.0808 23.201 21.9686 23.2482 21.8505 23.2717C21.7324 23.2952 21.6108 23.2946 21.4929 23.2698C21.3751 23.2451 21.2634 23.1968 21.1648 23.1278L18.8932 21.679L17.3368 24.1191C17.2764 24.2233 17.1956 24.3142 17.0991 24.3863C17.0027 24.4584 16.8927 24.5103 16.7757 24.5388C16.6587 24.5672 16.5371 24.5718 16.4183 24.552C16.2995 24.5323 16.1859 24.4888 16.0844 24.424C15.9829 24.3593 15.8955 24.2746 15.8275 24.1752C15.7596 24.0758 15.7124 23.9637 15.6889 23.8456C15.6654 23.7275 15.666 23.6059 15.6908 23.488C15.7155 23.3702 15.7638 23.2585 15.8328 23.1598L17.3892 20.7197Z" fill="url(#paint3_linear_4_602)"/>
<path fill-rule="evenodd" clip-rule="evenodd" d="M30.8246 8.89988L27.3627 9.86471C29.4387 11.7704 30.7777 14.3459 31.1452 17.1398C31.5126 19.9337 30.885 22.7679 29.3723 25.1455L25.7201 30.8716C25.2543 31.5995 24.5188 32.113 23.6749 32.2994C22.831 32.4858 21.9476 32.3299 21.2185 31.8659L6.50065 22.4785C5.7743 22.0123 5.26223 21.2772 5.07648 20.4343C4.89074 19.5914 5.04644 18.7093 5.50952 17.9809L9.16172 12.2548C10.6911 9.86236 13.0193 8.08979 15.7324 7.25222C18.4455 6.41464 21.3678 6.56633 23.9796 7.68032L23.3962 4.16191C23.3649 3.9713 23.3895 3.77572 23.467 3.59879C23.5445 3.42186 23.6715 3.27116 23.8328 3.1649C23.9941 3.05864 24.1828 3.00138 24.3759 3.00002C24.5691 2.99867 24.7585 3.05329 24.9213 3.15728L31.0938 7.09426C31.2571 7.19777 31.3868 7.34646 31.4672 7.52228C31.5476 7.69809 31.5752 7.89347 31.5467 8.08467C31.5182 8.27588 31.4348 8.4547 31.3066 8.59941C31.1784 8.74412 31.011 8.8485 30.8246 8.89988ZM26.0807 8.14375L28.1299 7.57589L25.7329 6.04704L26.0807 8.14375ZM23.2447 30.3488C23.571 30.2769 23.8553 30.0784 24.0354 29.797L27.6822 24.0674C28.4072 22.9619 28.9054 21.7233 29.1481 20.4236C29.3907 19.124 29.3728 17.7891 29.0955 16.4964C28.8182 15.2037 28.287 13.9789 27.5327 12.8931C26.7784 11.8073 25.816 10.8821 24.7013 10.1711C23.5866 9.46016 22.3419 8.9776 21.0392 8.75145C19.7366 8.5253 18.402 8.56004 17.113 8.85368C15.8239 9.14731 14.6059 9.69399 13.5297 10.462C12.4536 11.23 11.5406 12.204 10.8438 13.3276L7.1916 19.0537C7.01245 19.3354 6.95232 19.6766 7.0244 20.0026C7.09647 20.3285 7.29488 20.6126 7.57609 20.7924L22.2953 30.1806C22.577 30.3603 22.9185 30.4208 23.2447 30.3488ZM17.5044 19.8701L15.2328 18.4213C15.0442 18.2894 14.9137 18.0897 14.8688 17.8639C14.8238 17.638 14.8679 17.4036 14.9917 17.2095C15.1155 17.0154 15.3095 16.8766 15.5332 16.8222C15.7569 16.7677 15.993 16.8018 16.1921 16.9172L18.4637 18.3661L19.3154 17.0307L17.0439 15.5818C16.8552 15.4499 16.7248 15.2502 16.6798 15.0244C16.6349 14.7986 16.6789 14.5642 16.8027 14.3701C16.9265 14.176 17.1205 14.0372 17.3442 13.9827C17.5679 13.9283 17.804 13.9623 18.0032 14.0778L19.92 15.3004L19.5266 13.5162C19.4757 13.2862 19.5183 13.0454 19.645 12.8468C19.7716 12.6483 19.972 12.5081 20.202 12.4573C20.4319 12.4064 20.6727 12.449 20.8713 12.5756C21.0699 12.7023 21.21 12.9027 21.2608 13.1326L21.6767 15.0185L23.5621 14.6004C23.676 14.5752 23.7937 14.5727 23.9085 14.593C24.0234 14.6133 24.1331 14.6561 24.2314 14.7188C24.3297 14.7815 24.4147 14.863 24.4816 14.9585C24.5484 15.0541 24.5958 15.1619 24.621 15.2758C24.6461 15.3897 24.6487 15.5074 24.6283 15.6222C24.608 15.7371 24.5653 15.8468 24.5026 15.9451C24.4399 16.0434 24.3584 16.1284 24.2628 16.1953C24.1673 16.2621 24.0595 16.3095 23.9456 16.3347L22.1619 16.7303L24.0503 17.9348C24.1545 17.9952 24.2454 18.076 24.3175 18.1725C24.3896 18.2689 24.4415 18.3789 24.47 18.4959C24.4984 18.6129 24.503 18.7345 24.4832 18.8533C24.4635 18.9721 24.42 19.0857 24.3552 19.1872C24.2905 19.2887 24.2058 19.3761 24.1064 19.4441C24.007 19.512 23.8949 19.5592 23.7768 19.5827C23.6587 19.6062 23.5371 19.6056 23.4192 19.5808C23.3014 19.5561 23.1897 19.5078 23.091 19.4388L20.8195 17.99L19.9677 19.3254L22.2393 20.7742C22.3435 20.8346 22.4343 20.9155 22.5064 21.0119C22.5786 21.1083 22.6304 21.2184 22.6589 21.3354C22.6874 21.4524 22.6919 21.5739 22.6722 21.6927C22.6525 21.8115 22.6089 21.9251 22.5442 22.0266C22.4794 22.1282 22.3948 22.2155 22.2954 22.2835C22.196 22.3515 22.0839 22.3986 21.9658 22.4221C21.8477 22.4456 21.726 22.445 21.6082 22.4203C21.4903 22.3956 21.3787 22.3472 21.28 22.2782L19.0084 20.8294L17.452 23.2696C17.3916 23.3737 17.3108 23.4646 17.2144 23.5367C17.1179 23.6089 17.0079 23.6607 16.8909 23.6892C16.7739 23.7177 16.6523 23.7222 16.5335 23.7025C16.4147 23.6828 16.3012 23.6392 16.1996 23.5745C16.0981 23.5097 16.0107 23.4251 15.9428 23.3257C15.8748 23.2263 15.8276 23.1142 15.8041 22.9961C15.7806 22.878 15.7813 22.7563 15.806 22.6385C15.8307 22.5206 15.879 22.409 15.948 22.3103L17.5044 19.8701Z" fill="white"/>
<defs>
<linearGradient id="paint0_linear_4_602" x1="39.5001" y1="9.00012" x2="8.99128" y2="38.5555" gradientUnits="userSpaceOnUse">
<stop stop-color="#B6A279"/>
<stop offset="0.198712" stop-color="#D4B26E"/>
<stop offset="0.373577" stop-color="#C7901B"/>
<stop offset="0.566952" stop-color="#FFF5E0"/>
<stop offset="0.776143" stop-color="#A17412"/>
<stop offset="0.931916" stop-color="#FFE8B6"/>
<stop offset="1" stop-color="#B29F77"/>
</linearGradient>
<radialGradient id="paint1_radial_4_602" cx="0" cy="0" r="1" gradientUnits="userSpaceOnUse" gradientTransform="translate(37.47 29.0745) rotate(-138.22) scale(49.1786 74.3489)">
<stop offset="0.00914537" stop-color="#363835"/>
<stop offset="0.277881" stop-color="#6D6F70"/>
<stop offset="0.985997" stop-color="#353638"/>
</radialGradient>
<linearGradient id="paint2_linear_4_602" x1="33.3784" y1="3.09578" x2="8.69959" y2="16.3937" gradientUnits="userSpaceOnUse">
<stop stop-color="#FFFDE1"/>
<stop offset="0.595335" stop-color="#886D49"/>
<stop offset="1" stop-color="#CEB685"/>
</linearGradient>
<linearGradient id="paint3_linear_4_602" x1="30.469" y1="10.2292" x2="6.66264" y2="29.7071" gradientUnits="userSpaceOnUse">
<stop stop-color="#B6A279"/>
<stop offset="0.198712" stop-color="#D4B26E"/>
<stop offset="0.373577" stop-color="#C7901B"/>
<stop offset="0.566952" stop-color="#FFF5E0"/>
<stop offset="0.776143" stop-color="#A17412"/>
<stop offset="0.931916" stop-color="#FFE8B6"/>
<stop offset="1" stop-color="#B29F77"/>
</linearGradient>
</defs>
</svg>
