<svg width="30" height="31" viewBox="0 0 30 31" fill="none" xmlns="http://www.w3.org/2000/svg">
    <path d="M24.5091 0.046875H5.49093C2.45837 0.046875 0 2.3573 0 5.20736V24.8864C0 27.7365 2.45837 30.0469 5.49093 30.0469H24.5091C27.5416 30.0469 30 27.7365 30 24.8864V5.20736C30 2.3573 27.5416 0.046875 24.5091 0.046875Z" fill="url(#paint0_linear_4_505)"/>
    <path d="M24.5091 0.046875H5.49093C2.45837 0.046875 0 2.3573 0 5.20736V23.5323C0 26.3824 2.45837 28.6928 5.49093 28.6928H24.5091C27.5416 28.6928 30 26.3824 30 23.5323V5.20736C30 2.3573 27.5416 0.046875 24.5091 0.046875Z" fill="url(#paint1_linear_4_505)"/>
    <mask id="path-3-outside-1_4_505" maskUnits="userSpaceOnUse" x="7" y="5.47168" width="16" height="20" fill="black">
        <rect fill="white" x="7" y="5.47168" width="16" height="20"/>
        <path d="M14.8674 7.14208C14.8939 7.14208 14.9271 7.12891 14.9669 7.10256C15.0466 7.04987 15.1528 6.95766 15.2856 6.82592C15.4449 6.68101 15.6043 6.57563 15.7636 6.50976C15.9229 6.44389 16.1354 6.46365 16.4009 6.56904C16.5337 6.60856 16.6399 6.66455 16.7196 6.737C16.7992 6.80945 16.8756 6.87861 16.9486 6.94448C17.0216 7.01035 17.1013 7.06634 17.1876 7.11244C17.2739 7.15855 17.3835 7.1816 17.5162 7.1816C17.649 7.1816 17.7619 7.16184 17.8548 7.12232C17.9478 7.0828 18.0374 7.04658 18.1237 7.01364C18.21 6.98071 18.2963 6.95766 18.3826 6.94448C18.4689 6.93131 18.5718 6.94448 18.6913 6.984C18.8241 7.0367 18.9137 7.11244 18.9602 7.21124C19.0066 7.31005 19.0199 7.41214 19 7.51753C18.9801 7.62291 18.9336 7.7283 18.8606 7.83369C18.7876 7.93908 18.6979 8.0247 18.5917 8.09057C18.3394 8.24865 18.1469 8.41003 18.0141 8.5747C17.8814 8.73936 17.7486 8.91391 17.6158 9.09834C17.5494 9.19056 17.4764 9.29594 17.3967 9.4145C17.3171 9.53306 17.244 9.65163 17.1777 9.77019C17.098 9.91509 17.0117 10.0534 16.9187 10.1852H12.7961C12.7031 10.0271 12.6102 9.87557 12.5172 9.73067C12.4376 9.59893 12.3513 9.4672 12.2583 9.33546C12.1654 9.20373 12.0857 9.08517 12.0193 8.97978C11.8865 8.78218 11.7372 8.60763 11.5712 8.45614C11.4052 8.30464 11.2426 8.16961 11.0833 8.05105C10.9106 7.93249 10.7911 7.77112 10.7248 7.56693C10.6584 7.36274 10.7181 7.18819 10.904 7.04328C10.9969 6.97742 11.1032 6.95107 11.2227 6.96424C11.3422 6.97742 11.4683 7.00376 11.6011 7.04328C11.7339 7.0828 11.8633 7.12232 11.9894 7.16184C12.1156 7.20136 12.2318 7.20795 12.338 7.1816C12.5239 7.14208 12.6633 7.07292 12.7562 6.97412C12.8492 6.87532 13.0085 6.75347 13.2342 6.60856C13.4068 6.50317 13.5994 6.46694 13.8118 6.49988C14.0242 6.53281 14.1836 6.60197 14.2898 6.70736C14.3429 6.77323 14.3993 6.82921 14.4591 6.87532C14.5188 6.92143 14.5819 6.96424 14.6483 7.00376C14.7147 7.05646 14.7877 7.10256 14.8674 7.14208ZM17.1859 11.6223C17.3453 11.8331 17.5444 12.0636 17.7834 12.3139C17.9826 12.5378 18.2282 12.7914 18.5203 13.0747C18.8124 13.3579 19.151 13.6576 19.5361 13.9737C19.8547 14.2504 20.1833 14.5764 20.5219 14.9519C20.8605 15.3273 21.1559 15.7653 21.4082 16.2659C21.6605 16.7665 21.8364 17.3428 21.936 17.9949C22.0356 18.647 22.019 19.3749 21.8862 20.1784C21.7667 20.8371 21.531 21.4596 21.1792 22.0458C20.8273 22.632 20.3593 23.1425 19.7751 23.5772C19.1908 24.0119 18.4971 24.3577 17.6938 24.6146C16.8905 24.8715 15.9777 24.9999 14.9553 24.9999C13.9064 24.9999 12.9769 24.8517 12.167 24.5553C11.3571 24.2589 10.67 23.8736 10.1057 23.3993C9.54138 22.9251 9.09326 22.3949 8.76132 21.8086C8.42938 21.2224 8.2103 20.6395 8.10408 20.0599C7.98458 19.4144 7.96798 18.7952 8.05429 18.2024C8.14059 17.6096 8.2966 17.053 8.52232 16.5327C8.74804 16.0123 9.03019 15.5348 9.36877 15.1001C9.70735 14.6653 10.0758 14.2767 10.4741 13.9342C10.8193 13.6312 11.1314 13.3447 11.4102 13.0747C11.689 12.8046 11.9214 12.5576 12.1073 12.3336C12.333 12.0833 12.5321 11.8462 12.7048 11.6223H17.1859ZM15.0748 17.6887L14.5371 17.1551L14.1188 16.7402C13.986 16.6084 13.8931 16.5096 13.84 16.4438C13.7338 16.3515 13.5944 16.2758 13.4217 16.2165C13.2491 16.1572 13.1031 16.1935 12.9836 16.3252C12.8774 16.4701 12.8508 16.6117 12.9039 16.75C12.957 16.8884 13.0168 16.997 13.0832 17.0761L13.3819 17.3527C13.528 17.5108 13.6873 17.6821 13.8599 17.8665C14.0591 18.0773 14.2781 18.3012 14.5171 18.5383L14.4972 18.9533H13.1429C13.0234 18.9533 12.9205 18.9994 12.8342 19.0916C12.7479 19.1838 12.7048 19.2826 12.7048 19.388C12.7048 19.4934 12.7446 19.5856 12.8243 19.6647C12.9039 19.7437 13.0101 19.7832 13.1429 19.7832H14.4972V20.4748H13.1429C13.0234 20.4748 12.9205 20.5111 12.8342 20.5835C12.7479 20.656 12.7048 20.7515 12.7048 20.87C12.6915 20.9754 12.728 21.0643 12.8143 21.1368C12.9006 21.2093 13.0101 21.2455 13.1429 21.2455H14.4972V21.6407C14.5105 21.8251 14.5703 21.9536 14.6765 22.026C14.7827 22.0985 14.9155 22.1347 15.0748 22.1347C15.2341 22.1479 15.3636 22.0985 15.4632 21.9865C15.5628 21.8745 15.6125 21.7592 15.6125 21.6407V21.2455H17.0067C17.1395 21.2455 17.249 21.2158 17.3353 21.1566C17.4216 21.0973 17.4581 21.0018 17.4448 20.87C17.4448 20.5934 17.259 20.4551 16.8872 20.4551H15.6125L15.6325 19.7832L16.927 19.7635C17.1129 19.7766 17.2457 19.7404 17.3253 19.6548C17.405 19.5692 17.4448 19.4671 17.4448 19.3485C17.4448 19.2431 17.4017 19.1476 17.3154 19.062C17.2291 18.9764 17.093 18.9335 16.9071 18.9335H15.6125V18.5581C15.8383 18.3473 16.0441 18.1431 16.2299 17.9455C16.3893 17.7875 16.5486 17.6261 16.7079 17.4614C16.8673 17.2967 16.9868 17.1815 17.0664 17.1156C17.3718 16.8521 17.4382 16.6216 17.2656 16.424C17.1727 16.3054 17.0532 16.2462 16.9071 16.2462C16.7611 16.2462 16.6283 16.2989 16.5088 16.4042C16.4424 16.4569 16.3295 16.5524 16.1702 16.6908C16.0109 16.8291 15.8515 16.9707 15.6922 17.1156C15.5063 17.2869 15.3005 17.4779 15.0748 17.6887Z"/>
    </mask>
    <path d="M14.8674 7.14208C14.8939 7.14208 14.9271 7.12891 14.9669 7.10256C15.0466 7.04987 15.1528 6.95766 15.2856 6.82592C15.4449 6.68101 15.6043 6.57563 15.7636 6.50976C15.9229 6.44389 16.1354 6.46365 16.4009 6.56904C16.5337 6.60856 16.6399 6.66455 16.7196 6.737C16.7992 6.80945 16.8756 6.87861 16.9486 6.94448C17.0216 7.01035 17.1013 7.06634 17.1876 7.11244C17.2739 7.15855 17.3835 7.1816 17.5162 7.1816C17.649 7.1816 17.7619 7.16184 17.8548 7.12232C17.9478 7.0828 18.0374 7.04658 18.1237 7.01364C18.21 6.98071 18.2963 6.95766 18.3826 6.94448C18.4689 6.93131 18.5718 6.94448 18.6913 6.984C18.8241 7.0367 18.9137 7.11244 18.9602 7.21124C19.0066 7.31005 19.0199 7.41214 19 7.51753C18.9801 7.62291 18.9336 7.7283 18.8606 7.83369C18.7876 7.93908 18.6979 8.0247 18.5917 8.09057C18.3394 8.24865 18.1469 8.41003 18.0141 8.5747C17.8814 8.73936 17.7486 8.91391 17.6158 9.09834C17.5494 9.19056 17.4764 9.29594 17.3967 9.4145C17.3171 9.53306 17.244 9.65163 17.1777 9.77019C17.098 9.91509 17.0117 10.0534 16.9187 10.1852H12.7961C12.7031 10.0271 12.6102 9.87557 12.5172 9.73067C12.4376 9.59893 12.3513 9.4672 12.2583 9.33546C12.1654 9.20373 12.0857 9.08517 12.0193 8.97978C11.8865 8.78218 11.7372 8.60763 11.5712 8.45614C11.4052 8.30464 11.2426 8.16961 11.0833 8.05105C10.9106 7.93249 10.7911 7.77112 10.7248 7.56693C10.6584 7.36274 10.7181 7.18819 10.904 7.04328C10.9969 6.97742 11.1032 6.95107 11.2227 6.96424C11.3422 6.97742 11.4683 7.00376 11.6011 7.04328C11.7339 7.0828 11.8633 7.12232 11.9894 7.16184C12.1156 7.20136 12.2318 7.20795 12.338 7.1816C12.5239 7.14208 12.6633 7.07292 12.7562 6.97412C12.8492 6.87532 13.0085 6.75347 13.2342 6.60856C13.4068 6.50317 13.5994 6.46694 13.8118 6.49988C14.0242 6.53281 14.1836 6.60197 14.2898 6.70736C14.3429 6.77323 14.3993 6.82921 14.4591 6.87532C14.5188 6.92143 14.5819 6.96424 14.6483 7.00376C14.7147 7.05646 14.7877 7.10256 14.8674 7.14208ZM17.1859 11.6223C17.3453 11.8331 17.5444 12.0636 17.7834 12.3139C17.9826 12.5378 18.2282 12.7914 18.5203 13.0747C18.8124 13.3579 19.151 13.6576 19.5361 13.9737C19.8547 14.2504 20.1833 14.5764 20.5219 14.9519C20.8605 15.3273 21.1559 15.7653 21.4082 16.2659C21.6605 16.7665 21.8364 17.3428 21.936 17.9949C22.0356 18.647 22.019 19.3749 21.8862 20.1784C21.7667 20.8371 21.531 21.4596 21.1792 22.0458C20.8273 22.632 20.3593 23.1425 19.7751 23.5772C19.1908 24.0119 18.4971 24.3577 17.6938 24.6146C16.8905 24.8715 15.9777 24.9999 14.9553 24.9999C13.9064 24.9999 12.9769 24.8517 12.167 24.5553C11.3571 24.2589 10.67 23.8736 10.1057 23.3993C9.54138 22.9251 9.09326 22.3949 8.76132 21.8086C8.42938 21.2224 8.2103 20.6395 8.10408 20.0599C7.98458 19.4144 7.96798 18.7952 8.05429 18.2024C8.14059 17.6096 8.2966 17.053 8.52232 16.5327C8.74804 16.0123 9.03019 15.5348 9.36877 15.1001C9.70735 14.6653 10.0758 14.2767 10.4741 13.9342C10.8193 13.6312 11.1314 13.3447 11.4102 13.0747C11.689 12.8046 11.9214 12.5576 12.1073 12.3336C12.333 12.0833 12.5321 11.8462 12.7048 11.6223H17.1859ZM15.0748 17.6887L14.5371 17.1551L14.1188 16.7402C13.986 16.6084 13.8931 16.5096 13.84 16.4438C13.7338 16.3515 13.5944 16.2758 13.4217 16.2165C13.2491 16.1572 13.1031 16.1935 12.9836 16.3252C12.8774 16.4701 12.8508 16.6117 12.9039 16.75C12.957 16.8884 13.0168 16.997 13.0832 17.0761L13.3819 17.3527C13.528 17.5108 13.6873 17.6821 13.8599 17.8665C14.0591 18.0773 14.2781 18.3012 14.5171 18.5383L14.4972 18.9533H13.1429C13.0234 18.9533 12.9205 18.9994 12.8342 19.0916C12.7479 19.1838 12.7048 19.2826 12.7048 19.388C12.7048 19.4934 12.7446 19.5856 12.8243 19.6647C12.9039 19.7437 13.0101 19.7832 13.1429 19.7832H14.4972V20.4748H13.1429C13.0234 20.4748 12.9205 20.5111 12.8342 20.5835C12.7479 20.656 12.7048 20.7515 12.7048 20.87C12.6915 20.9754 12.728 21.0643 12.8143 21.1368C12.9006 21.2093 13.0101 21.2455 13.1429 21.2455H14.4972V21.6407C14.5105 21.8251 14.5703 21.9536 14.6765 22.026C14.7827 22.0985 14.9155 22.1347 15.0748 22.1347C15.2341 22.1479 15.3636 22.0985 15.4632 21.9865C15.5628 21.8745 15.6125 21.7592 15.6125 21.6407V21.2455H17.0067C17.1395 21.2455 17.249 21.2158 17.3353 21.1566C17.4216 21.0973 17.4581 21.0018 17.4448 20.87C17.4448 20.5934 17.259 20.4551 16.8872 20.4551H15.6125L15.6325 19.7832L16.927 19.7635C17.1129 19.7766 17.2457 19.7404 17.3253 19.6548C17.405 19.5692 17.4448 19.4671 17.4448 19.3485C17.4448 19.2431 17.4017 19.1476 17.3154 19.062C17.2291 18.9764 17.093 18.9335 16.9071 18.9335H15.6125V18.5581C15.8383 18.3473 16.0441 18.1431 16.2299 17.9455C16.3893 17.7875 16.5486 17.6261 16.7079 17.4614C16.8673 17.2967 16.9868 17.1815 17.0664 17.1156C17.3718 16.8521 17.4382 16.6216 17.2656 16.424C17.1727 16.3054 17.0532 16.2462 16.9071 16.2462C16.7611 16.2462 16.6283 16.2989 16.5088 16.4042C16.4424 16.4569 16.3295 16.5524 16.1702 16.6908C16.0109 16.8291 15.8515 16.9707 15.6922 17.1156C15.5063 17.2869 15.3005 17.4779 15.0748 17.6887Z" fill="url(#paint2_linear_4_505)"/>
    <path d="M14.8674 7.14208C14.8939 7.14208 14.9271 7.12891 14.9669 7.10256C15.0466 7.04987 15.1528 6.95766 15.2856 6.82592C15.4449 6.68101 15.6043 6.57563 15.7636 6.50976C15.9229 6.44389 16.1354 6.46365 16.4009 6.56904C16.5337 6.60856 16.6399 6.66455 16.7196 6.737C16.7992 6.80945 16.8756 6.87861 16.9486 6.94448C17.0216 7.01035 17.1013 7.06634 17.1876 7.11244C17.2739 7.15855 17.3835 7.1816 17.5162 7.1816C17.649 7.1816 17.7619 7.16184 17.8548 7.12232C17.9478 7.0828 18.0374 7.04658 18.1237 7.01364C18.21 6.98071 18.2963 6.95766 18.3826 6.94448C18.4689 6.93131 18.5718 6.94448 18.6913 6.984C18.8241 7.0367 18.9137 7.11244 18.9602 7.21124C19.0066 7.31005 19.0199 7.41214 19 7.51753C18.9801 7.62291 18.9336 7.7283 18.8606 7.83369C18.7876 7.93908 18.6979 8.0247 18.5917 8.09057C18.3394 8.24865 18.1469 8.41003 18.0141 8.5747C17.8814 8.73936 17.7486 8.91391 17.6158 9.09834C17.5494 9.19056 17.4764 9.29594 17.3967 9.4145C17.3171 9.53306 17.244 9.65163 17.1777 9.77019C17.098 9.91509 17.0117 10.0534 16.9187 10.1852H12.7961C12.7031 10.0271 12.6102 9.87557 12.5172 9.73067C12.4376 9.59893 12.3513 9.4672 12.2583 9.33546C12.1654 9.20373 12.0857 9.08517 12.0193 8.97978C11.8865 8.78218 11.7372 8.60763 11.5712 8.45614C11.4052 8.30464 11.2426 8.16961 11.0833 8.05105C10.9106 7.93249 10.7911 7.77112 10.7248 7.56693C10.6584 7.36274 10.7181 7.18819 10.904 7.04328C10.9969 6.97742 11.1032 6.95107 11.2227 6.96424C11.3422 6.97742 11.4683 7.00376 11.6011 7.04328C11.7339 7.0828 11.8633 7.12232 11.9894 7.16184C12.1156 7.20136 12.2318 7.20795 12.338 7.1816C12.5239 7.14208 12.6633 7.07292 12.7562 6.97412C12.8492 6.87532 13.0085 6.75347 13.2342 6.60856C13.4068 6.50317 13.5994 6.46694 13.8118 6.49988C14.0242 6.53281 14.1836 6.60197 14.2898 6.70736C14.3429 6.77323 14.3993 6.82921 14.4591 6.87532C14.5188 6.92143 14.5819 6.96424 14.6483 7.00376C14.7147 7.05646 14.7877 7.10256 14.8674 7.14208ZM17.1859 11.6223C17.3453 11.8331 17.5444 12.0636 17.7834 12.3139C17.9826 12.5378 18.2282 12.7914 18.5203 13.0747C18.8124 13.3579 19.151 13.6576 19.5361 13.9737C19.8547 14.2504 20.1833 14.5764 20.5219 14.9519C20.8605 15.3273 21.1559 15.7653 21.4082 16.2659C21.6605 16.7665 21.8364 17.3428 21.936 17.9949C22.0356 18.647 22.019 19.3749 21.8862 20.1784C21.7667 20.8371 21.531 21.4596 21.1792 22.0458C20.8273 22.632 20.3593 23.1425 19.7751 23.5772C19.1908 24.0119 18.4971 24.3577 17.6938 24.6146C16.8905 24.8715 15.9777 24.9999 14.9553 24.9999C13.9064 24.9999 12.9769 24.8517 12.167 24.5553C11.3571 24.2589 10.67 23.8736 10.1057 23.3993C9.54138 22.9251 9.09326 22.3949 8.76132 21.8086C8.42938 21.2224 8.2103 20.6395 8.10408 20.0599C7.98458 19.4144 7.96798 18.7952 8.05429 18.2024C8.14059 17.6096 8.2966 17.053 8.52232 16.5327C8.74804 16.0123 9.03019 15.5348 9.36877 15.1001C9.70735 14.6653 10.0758 14.2767 10.4741 13.9342C10.8193 13.6312 11.1314 13.3447 11.4102 13.0747C11.689 12.8046 11.9214 12.5576 12.1073 12.3336C12.333 12.0833 12.5321 11.8462 12.7048 11.6223H17.1859ZM15.0748 17.6887L14.5371 17.1551L14.1188 16.7402C13.986 16.6084 13.8931 16.5096 13.84 16.4438C13.7338 16.3515 13.5944 16.2758 13.4217 16.2165C13.2491 16.1572 13.1031 16.1935 12.9836 16.3252C12.8774 16.4701 12.8508 16.6117 12.9039 16.75C12.957 16.8884 13.0168 16.997 13.0832 17.0761L13.3819 17.3527C13.528 17.5108 13.6873 17.6821 13.8599 17.8665C14.0591 18.0773 14.2781 18.3012 14.5171 18.5383L14.4972 18.9533H13.1429C13.0234 18.9533 12.9205 18.9994 12.8342 19.0916C12.7479 19.1838 12.7048 19.2826 12.7048 19.388C12.7048 19.4934 12.7446 19.5856 12.8243 19.6647C12.9039 19.7437 13.0101 19.7832 13.1429 19.7832H14.4972V20.4748H13.1429C13.0234 20.4748 12.9205 20.5111 12.8342 20.5835C12.7479 20.656 12.7048 20.7515 12.7048 20.87C12.6915 20.9754 12.728 21.0643 12.8143 21.1368C12.9006 21.2093 13.0101 21.2455 13.1429 21.2455H14.4972V21.6407C14.5105 21.8251 14.5703 21.9536 14.6765 22.026C14.7827 22.0985 14.9155 22.1347 15.0748 22.1347C15.2341 22.1479 15.3636 22.0985 15.4632 21.9865C15.5628 21.8745 15.6125 21.7592 15.6125 21.6407V21.2455H17.0067C17.1395 21.2455 17.249 21.2158 17.3353 21.1566C17.4216 21.0973 17.4581 21.0018 17.4448 20.87C17.4448 20.5934 17.259 20.4551 16.8872 20.4551H15.6125L15.6325 19.7832L16.927 19.7635C17.1129 19.7766 17.2457 19.7404 17.3253 19.6548C17.405 19.5692 17.4448 19.4671 17.4448 19.3485C17.4448 19.2431 17.4017 19.1476 17.3154 19.062C17.2291 18.9764 17.093 18.9335 16.9071 18.9335H15.6125V18.5581C15.8383 18.3473 16.0441 18.1431 16.2299 17.9455C16.3893 17.7875 16.5486 17.6261 16.7079 17.4614C16.8673 17.2967 16.9868 17.1815 17.0664 17.1156C17.3718 16.8521 17.4382 16.6216 17.2656 16.424C17.1727 16.3054 17.0532 16.2462 16.9071 16.2462C16.7611 16.2462 16.6283 16.2989 16.5088 16.4042C16.4424 16.4569 16.3295 16.5524 16.1702 16.6908C16.0109 16.8291 15.8515 16.9707 15.6922 17.1156C15.5063 17.2869 15.3005 17.4779 15.0748 17.6887Z" stroke="#735514" stroke-width="0.446177" mask="url(#path-3-outside-1_4_505)"/>
    <path d="M14.9354 6.67033C14.9619 6.67033 14.9951 6.65715 15.035 6.63081C15.1146 6.57811 15.2209 6.4859 15.3536 6.35416C15.513 6.20926 15.6723 6.10387 15.8316 6.038C15.991 5.97213 16.2034 5.99189 16.4689 6.09728C16.6017 6.1368 16.7079 6.19279 16.7876 6.26524C16.8673 6.3377 16.9436 6.40686 17.0166 6.47272C17.0897 6.53859 17.1693 6.59458 17.2556 6.64069C17.3419 6.68679 17.4515 6.70985 17.5843 6.70985C17.717 6.70985 17.8299 6.69009 17.9228 6.65057C18.0158 6.61105 18.1054 6.57482 18.1917 6.54188C18.278 6.50895 18.3643 6.4859 18.4506 6.47272C18.5369 6.45955 18.6398 6.47272 18.7593 6.51224C18.8921 6.56494 18.9817 6.64069 19.0282 6.73949C19.0747 6.83829 19.0879 6.94038 19.068 7.04577C19.0481 7.15116 19.0016 7.25654 18.9286 7.36193C18.8556 7.46732 18.766 7.55295 18.6597 7.61881C18.4075 7.7769 18.2149 7.93827 18.0822 8.10294C17.9494 8.26761 17.8166 8.44216 17.6838 8.62658C17.6175 8.7188 17.5444 8.82418 17.4648 8.94275C17.3851 9.06131 17.3121 9.17987 17.2457 9.29843C17.166 9.44334 17.0797 9.58166 16.9868 9.71339H12.8641C12.7711 9.55531 12.6782 9.40382 12.5853 9.25891C12.5056 9.12717 12.4193 8.99544 12.3263 8.86371C12.2334 8.73197 12.1537 8.61341 12.0873 8.50802C11.9546 8.31042 11.8052 8.13587 11.6392 7.98438C11.4733 7.83288 11.3106 7.69786 11.1513 7.57929C10.9787 7.46073 10.8592 7.29936 10.7928 7.09517C10.7264 6.89098 10.7861 6.71643 10.972 6.57153C11.065 6.50566 11.1712 6.47931 11.2907 6.49248C11.4102 6.50566 11.5363 6.532 11.6691 6.57153C11.8019 6.61105 11.9313 6.65057 12.0575 6.69009C12.1836 6.72961 12.2998 6.73619 12.406 6.70985C12.5919 6.67033 12.7313 6.60117 12.8243 6.50236C12.9172 6.40356 13.0765 6.28171 13.3022 6.1368C13.4749 6.03141 13.6674 5.99519 13.8798 6.02812C14.0923 6.06105 14.2516 6.13021 14.3578 6.2356C14.4109 6.30147 14.4674 6.35746 14.5271 6.40356C14.5869 6.44967 14.6499 6.49248 14.7163 6.532C14.7827 6.5847 14.8557 6.63081 14.9354 6.67033ZM17.1859 10.6224C17.3453 10.8331 17.5444 11.0637 17.7834 11.314C17.9826 11.5379 18.2282 11.7915 18.5203 12.0747C18.8124 12.358 19.151 12.6577 19.5361 12.9738C19.8547 13.2505 20.1833 13.5765 20.5219 13.952C20.8605 14.3274 21.1559 14.7654 21.4082 15.266C21.6605 15.7666 21.8364 16.3429 21.936 16.995C22.0356 17.6471 22.019 18.3749 21.8862 19.1785C21.7667 19.8372 21.531 20.4596 21.1792 21.0459C20.8273 21.6321 20.3593 22.1425 19.7751 22.5773C19.1908 23.012 18.4971 23.3578 17.6938 23.6147C16.8905 23.8716 15.9777 24 14.9553 24C13.9064 24 12.9769 23.8518 12.167 23.5554C11.3571 23.259 10.67 22.8737 10.1057 22.3994C9.54138 21.9252 9.09326 21.395 8.76132 20.8087C8.42938 20.2225 8.2103 19.6396 8.10408 19.06C7.98458 18.4145 7.96798 17.7953 8.05429 17.2025C8.14059 16.6097 8.2966 16.0531 8.52232 15.5328C8.74804 15.0124 9.03019 14.5349 9.36877 14.1002C9.70735 13.6654 10.0758 13.2768 10.4741 12.9343C10.8193 12.6313 11.1314 12.3448 11.4102 12.0747C11.689 11.8047 11.9214 11.5577 12.1073 11.3337C12.333 11.0834 12.5321 10.8463 12.7048 10.6224H17.1859ZM15.0748 16.6887L14.5371 16.1552L14.1188 15.7402C13.986 15.6085 13.8931 15.5097 13.84 15.4438C13.7338 15.3516 13.5944 15.2759 13.4217 15.2166C13.2491 15.1573 13.1031 15.1935 12.9836 15.3253C12.8774 15.4702 12.8508 15.6118 12.9039 15.7501C12.957 15.8884 13.0168 15.9971 13.0832 16.0762L13.3819 16.3528C13.528 16.5109 13.6873 16.6821 13.8599 16.8666C14.0591 17.0774 14.2781 17.3013 14.5171 17.5384L14.4972 17.9534H13.1429C13.0234 17.9534 12.9205 17.9995 12.8342 18.0917C12.7479 18.1839 12.7048 18.2827 12.7048 18.3881C12.7048 18.4935 12.7446 18.5857 12.8243 18.6648C12.9039 18.7438 13.0101 18.7833 13.1429 18.7833H14.4972V19.4749H13.1429C13.0234 19.4749 12.9205 19.5111 12.8342 19.5836C12.7479 19.6561 12.7048 19.7516 12.7048 19.8701C12.6915 19.9755 12.728 20.0644 12.8143 20.1369C12.9006 20.2093 13.0101 20.2456 13.1429 20.2456H14.4972V20.6408C14.5105 20.8252 14.5703 20.9536 14.6765 21.0261C14.7827 21.0985 14.9155 21.1348 15.0748 21.1348C15.2341 21.1479 15.3636 21.0985 15.4632 20.9866C15.5628 20.8746 15.6125 20.7593 15.6125 20.6408V20.2456H17.0067C17.1395 20.2456 17.249 20.2159 17.3353 20.1566C17.4216 20.0974 17.4581 20.0019 17.4448 19.8701C17.4448 19.5935 17.259 19.4552 16.8872 19.4552H15.6125L15.6325 18.7833L16.927 18.7636C17.1129 18.7767 17.2457 18.7405 17.3253 18.6549C17.405 18.5692 17.4448 18.4672 17.4448 18.3486C17.4448 18.2432 17.4017 18.1477 17.3154 18.0621C17.2291 17.9764 17.093 17.9336 16.9071 17.9336H15.6125V17.5582C15.8383 17.3474 16.0441 17.1432 16.2299 16.9456C16.3893 16.7875 16.5486 16.6262 16.7079 16.4615C16.8673 16.2968 16.9868 16.1816 17.0664 16.1157C17.3718 15.8522 17.4382 15.6217 17.2656 15.4241C17.1727 15.3055 17.0532 15.2462 16.9071 15.2462C16.7611 15.2462 16.6283 15.2989 16.5088 15.4043C16.4424 15.457 16.3295 15.5525 16.1702 15.6908C16.0109 15.8292 15.8515 15.9708 15.6922 16.1157C15.5063 16.2869 15.3005 16.478 15.0748 16.6887Z" fill="url(#paint3_linear_4_505)"/>
    <defs>
        <linearGradient id="paint0_linear_4_505" x1="28.5" y1="26.5" x2="0.000202896" y2="25.9886" gradientUnits="userSpaceOnUse">
            <stop stop-color="#76540D"/>
            <stop offset="0.177025" stop-color="#D4B26E"/>
            <stop offset="0.373577" stop-color="#C7901B"/>
            <stop offset="0.566952" stop-color="#FFF5E0"/>
            <stop offset="0.776143" stop-color="#A17412"/>
            <stop offset="0.931916" stop-color="#FFE8B6"/>
            <stop offset="1" stop-color="#A07418"/>
        </linearGradient>
        <linearGradient id="paint1_linear_4_505" x1="15" y1="28.6928" x2="15" y2="0.046875" gradientUnits="userSpaceOnUse">
            <stop stop-color="#A27616"/>
            <stop offset="1" stop-color="#FAECCF"/>
        </linearGradient>
        <linearGradient id="paint2_linear_4_505" x1="22" y1="16.3318" x2="8" y2="16.3318" gradientUnits="userSpaceOnUse">
            <stop stop-color="#A97F24"/>
            <stop offset="0.151042" stop-color="#7C5A13"/>
            <stop offset="0.5" stop-color="#EFDEB8"/>
            <stop offset="0.921875" stop-color="#7D5B14"/>
            <stop offset="1" stop-color="#B38D3A"/>
        </linearGradient>
        <linearGradient id="paint3_linear_4_505" x1="14.9957" y1="24" x2="14.9957" y2="6" gradientUnits="userSpaceOnUse">
            <stop stop-color="#FFEEC9"/>
            <stop offset="1" stop-color="#FFFDF8"/>
        </linearGradient>
    </defs>
</svg>
