<svg width="50" height="50" viewBox="0 0 50 50" fill="none" xmlns="http://www.w3.org/2000/svg">
    <circle cx="25" cy="25" r="25" fill="#373948"/>
    <circle cx="25" cy="25" r="24.5" stroke="#F3B868" stroke-opacity="0.5"/>
    <path d="M25.5699 9C34.5099 9 34.5099 15.74 34.5099 19.54C34.5099 23.34 30.9899 30.38 25.5699 30.54C20.2999 30.54 16.6399 23.54 16.6399 19.54C16.6399 15.74 16.6399 9 25.5699 9Z" fill="#F3B868" fill-opacity="0.5"/>
    <path d="M25 47.51C21.7631 47.504 18.5663 46.7944 15.6309 45.4303C12.6955 44.0662 10.0917 42.0802 8 39.61C8.47863 38.1344 9.28161 36.7847 10.35 35.66C12.54 33.9 19.13 31 19.13 31L23.23 38.91L24 37L22.82 34.66L25.17 32.31L27.51 34.66L26.51 37.15L27 39L31.24 31.23C31.24 31.23 37.84 34.16 40.03 35.92C41.0535 36.7633 41.8165 37.8799 42.23 39.14C40.1874 41.7578 37.5727 43.8731 34.5861 45.3239C31.5994 46.7748 28.3203 47.5226 25 47.51Z" fill="#F3B868" fill-opacity="0.5"/>
</svg>
