<svg width="30" height="30" viewBox="0 0 30 30" fill="none" xmlns="http://www.w3.org/2000/svg">
    <path d="M24.5091 0H5.49093C2.45837 0 0 2.31043 0 5.16048V24.8395C0 27.6896 2.45837 30 5.49093 30H24.5091C27.5416 30 30 27.6896 30 24.8395V5.16048C30 2.31043 27.5416 0 24.5091 0Z" fill="url(#paint0_linear_4_494)"/>
    <path d="M24.5091 0H5.49093C2.45837 0 0 2.31043 0 5.16048V23.4855C0 26.3355 2.45837 28.6459 5.49093 28.6459H24.5091C27.5416 28.6459 30 26.3355 30 23.4855V5.16048C30 2.31043 27.5416 0 24.5091 0Z" fill="url(#paint1_linear_4_494)"/>
    <path d="M20.9632 5.37439H9.03676C7.30621 5.37439 5.9 6.75092 5.9 8.453L5.90004 21.9744C5.90004 22.8271 6.24446 23.4764 6.81028 23.91C7.37288 24.341 8.14638 24.553 9.00004 24.553H20.9265C21.7801 24.553 22.5713 24.3411 23.1517 23.9109C23.7355 23.4784 24.1 22.8291 24.1 21.9744L24.1 8.453C24.1 6.75092 22.6938 5.37439 20.9632 5.37439Z" fill="url(#paint2_linear_4_494)" stroke="#735514" stroke-width="0.2"/>
    <path d="M9.21018 5.12988C8.37218 5.14564 7.57417 5.4696 6.98752 6.0322C6.40086 6.59481 6.07234 7.35118 6.07251 8.13891V20.501C6.07234 21.2887 6.40086 22.0451 6.98752 22.6077C7.57417 23.1703 8.37218 23.4943 9.21018 23.51H20.811C21.2266 23.5054 21.6371 23.424 22.0192 23.2703C22.4012 23.1166 22.7473 22.8936 23.0377 22.6142C23.3281 22.3348 23.557 22.0044 23.7115 21.6418C23.866 21.2792 23.943 20.8915 23.938 20.501V8.15395C23.9382 7.36623 23.6097 6.60985 23.023 6.04725C22.4364 5.48465 21.6384 5.16068 20.8004 5.14493H19.2689C19.327 5.33225 19.3558 5.52654 19.3543 5.72166C19.3592 5.97193 19.3117 6.22067 19.2143 6.45367C19.1169 6.68666 18.9717 6.89935 18.7869 7.07958C18.602 7.25981 18.3812 7.40405 18.1371 7.50407C17.8929 7.60408 17.6302 7.65791 17.3639 7.66248H13.159C12.8922 7.65857 12.6289 7.60522 12.3841 7.50549C12.1393 7.40577 11.9179 7.26163 11.7325 7.08133C11.5471 6.90103 11.4014 6.68812 11.3037 6.45481C11.206 6.22149 11.1583 5.97235 11.1632 5.72166C11.1629 5.52461 11.1935 5.32859 11.2539 5.13991L9.21018 5.12988Z" fill="url(#paint3_linear_4_494)"/>
    <path d="M12.1718 5.13452C12.0619 5.31087 12.0047 5.51188 12.0064 5.71627C12.0029 5.86134 12.03 6.00563 12.0861 6.1408C12.1422 6.27597 12.2263 6.39935 12.3335 6.50381C12.4407 6.60826 12.5688 6.69172 12.7105 6.74936C12.8522 6.80701 13.0046 6.83769 13.159 6.83964H17.3639C17.5181 6.83703 17.6702 6.8059 17.8116 6.74802C17.953 6.69015 18.0808 6.60667 18.1879 6.50235C18.2949 6.39803 18.379 6.27492 18.4354 6.14004C18.4918 6.00516 18.5194 5.86116 18.5165 5.71627C18.5155 5.5138 18.4585 5.31506 18.3511 5.13954L12.1718 5.13452Z" fill="white"/>
    <rect x="7.99048" y="10.2817" width="13.6985" height="1.68966" rx="0.844829" fill="#AF8731"/>
    <rect x="7.99048" y="14.0374" width="10.2739" height="1.68966" rx="0.844829" fill="#AF8731"/>
    <rect x="7.99048" y="17.7913" width="7.99081" height="1.68966" rx="0.844829" fill="#AF8731"/>
    <defs>
        <linearGradient id="paint0_linear_4_494" x1="28.5" y1="26.4531" x2="0.000202896" y2="25.9417" gradientUnits="userSpaceOnUse">
            <stop stop-color="#76540D"/>
            <stop offset="0.177025" stop-color="#D4B26E"/>
            <stop offset="0.373577" stop-color="#C7901B"/>
            <stop offset="0.566952" stop-color="#FFF5E0"/>
            <stop offset="0.776143" stop-color="#A17412"/>
            <stop offset="0.931916" stop-color="#FFE8B6"/>
            <stop offset="1" stop-color="#A07418"/>
        </linearGradient>
        <linearGradient id="paint1_linear_4_494" x1="15" y1="28.6459" x2="15" y2="0" gradientUnits="userSpaceOnUse">
            <stop stop-color="#A27616"/>
            <stop offset="1" stop-color="#FAECCF"/>
        </linearGradient>
        <linearGradient id="paint2_linear_4_494" x1="24" y1="14.9497" x2="6" y2="14.9497" gradientUnits="userSpaceOnUse">
            <stop stop-color="#A97F24"/>
            <stop offset="0.151042" stop-color="#7C5A13"/>
            <stop offset="0.5" stop-color="#EFDEB8"/>
            <stop offset="0.921875" stop-color="#7D5B14"/>
            <stop offset="1" stop-color="#B38D3A"/>
        </linearGradient>
        <linearGradient id="paint3_linear_4_494" x1="14.9999" y1="23.51" x2="14.9999" y2="5.12988" gradientUnits="userSpaceOnUse">
            <stop stop-color="#FFEEC9"/>
            <stop offset="1" stop-color="#FFFDF8"/>
        </linearGradient>
    </defs>
</svg>
