<svg width="22" height="22" viewBox="0 0 22 22" fill="none" xmlns="http://www.w3.org/2000/svg">
    <mask id="mask0_229_532" style="mask-type:alpha" maskUnits="userSpaceOnUse" x="0" y="0" width="22" height="22">
        <rect width="22" height="22" fill="#D9D9D9"/>
    </mask>
    <g mask="url(#mask0_229_532)">
    </g>
    <g clip-path="url(#clip0_229_532)">
        <path fill-rule="evenodd" clip-rule="evenodd" d="M11.399 1.83398H10.5618C10.4858 1.85969 10.4071 1.86163 10.3286 1.86356C10.2952 1.86438 10.2618 1.8652 10.2287 1.86785C9.6309 1.9153 9.03953 2.02358 8.46373 2.191C7.10281 2.58097 5.85172 3.28328 4.81005 4.24204C3.25513 5.66183 2.23875 7.57552 1.93308 9.65892C1.85083 10.2135 1.81943 10.7744 1.83925 11.3346C1.90534 13.1468 2.50726 14.8988 3.56891 16.3689C4.63055 17.839 6.10423 18.9612 7.80361 19.5938C8.42656 19.8277 9.07365 19.9914 9.73288 20.0818C10.4099 20.1741 11.0951 20.1916 11.776 20.134C12.4724 20.0761 13.16 19.9386 13.8252 19.7242C14.5127 19.5016 15.1711 19.1971 15.7861 18.8175C16.9308 18.116 17.9076 17.1717 18.6475 16.0514C19.3874 14.931 19.8724 13.6618 20.0682 12.3335C20.1098 12.0481 20.1365 11.761 20.152 11.4734C20.1523 11.4697 20.1523 11.4659 20.1523 11.4621C20.1524 11.4461 20.1526 11.43 20.1665 11.4179V10.6006C20.1625 10.5576 20.1584 10.5146 20.1543 10.4716C20.1462 10.3871 20.1381 10.3027 20.1315 10.218C19.9395 7.95382 18.912 5.84204 17.249 4.29368C15.8918 3.02594 14.1803 2.20234 12.3428 1.93282C12.0486 1.88784 11.752 1.85966 11.4545 1.84842C11.4514 1.84833 11.4483 1.84834 11.4451 1.84835C11.4285 1.84841 11.4116 1.84846 11.399 1.83398ZM6.68658 6.21368H10.9504H10.9515C12.3695 6.21554 13.7883 6.21406 15.2081 6.20924C15.3031 6.20924 15.3297 6.2309 15.3297 6.32806C15.3264 7.03876 15.3264 7.74947 15.3297 8.46017C15.3297 8.5429 15.3069 8.564 15.2248 8.564C14.7298 8.56178 14.235 8.56178 13.7402 8.56178C13.2454 8.56178 12.7506 8.56178 12.2556 8.55956C12.1513 8.559 12.1324 8.59009 12.1324 8.68726C12.1379 8.98598 12.1357 9.28469 12.1324 9.58341C12.1318 9.65559 12.1452 9.68613 12.2273 9.69113C12.8196 9.72234 13.4097 9.78592 13.995 9.88157C14.6579 9.99373 15.3175 10.1314 15.9282 10.4196C16.1331 10.5157 16.3318 10.6234 16.4789 10.801C16.6738 11.0359 16.6594 11.2636 16.444 11.4801C16.243 11.6816 15.9932 11.8044 15.7339 11.9087C15.2555 12.0924 14.7601 12.2282 14.2549 12.3141C13.5738 12.4368 12.8857 12.5161 12.1946 12.5517C12.1452 12.555 12.1307 12.5734 12.1341 12.6178V12.6977C12.1315 13.96 12.1315 15.222 12.1341 16.4839C12.1341 16.5694 12.1196 16.601 12.023 16.601C11.5559 16.5992 11.0888 16.5998 10.6217 16.6004C10.3882 16.6007 10.1546 16.601 9.92109 16.601C9.78285 16.601 9.78285 16.5994 9.78285 16.465C9.78285 16.0432 9.78235 15.6214 9.78186 15.1996C9.78087 14.3561 9.77989 13.5126 9.78285 12.6694C9.7834 12.5722 9.75342 12.54 9.6657 12.54C9.33426 12.53 9.00448 12.494 8.67581 12.4545C7.97128 12.3701 7.27452 12.2502 6.59886 12.0281C6.26075 11.9171 5.93208 11.7866 5.65005 11.5645C5.52883 11.4809 5.44066 11.3576 5.40077 11.2158C5.35191 11.0043 5.45795 10.8521 5.60397 10.72C5.81605 10.5301 6.07254 10.4096 6.33515 10.308C6.89921 10.0892 7.48882 9.96597 8.08398 9.87047C8.61035 9.78581 9.14099 9.73021 9.67348 9.7039C9.75564 9.70057 9.78451 9.68113 9.78451 9.58952C9.7773 9.28358 9.77841 8.9782 9.78451 8.67282C9.78784 8.58454 9.76508 8.56178 9.67681 8.56178C8.69024 8.56511 7.70423 8.56511 6.71767 8.56511C6.6305 8.56511 6.58942 8.56233 6.58942 8.44795C6.58942 8.33876 6.58905 8.22993 6.58868 8.12111C6.58794 7.90345 6.5872 7.6858 6.58942 7.46519C6.5913 7.27841 6.58858 7.09199 6.58586 6.90512C6.58375 6.76091 6.58165 6.61643 6.58165 6.47131C6.58838 6.41606 6.59023 6.36032 6.5872 6.30474C6.56967 6.21335 6.61671 6.21349 6.67821 6.21367C6.68097 6.21368 6.68376 6.21368 6.68658 6.21368ZM9.13617 11.7516C9.75464 11.8001 10.3739 11.8227 10.9938 11.8193C11.6517 11.8155 12.3107 11.7955 12.9686 11.7394C13.702 11.6778 14.4304 11.5911 15.1416 11.3946C15.377 11.3291 15.613 11.2563 15.8134 11.107C16.0288 10.9443 16.0288 10.7788 15.8067 10.6245C15.643 10.5169 15.4633 10.436 15.2743 10.3846C14.7684 10.2388 14.2509 10.1365 13.7276 10.0787C13.2969 10.0239 12.8645 9.99236 12.4319 9.96084C12.3693 9.95628 12.3067 9.95172 12.2441 9.94709C12.1547 9.94043 12.1275 9.95986 12.1275 10.0548C12.1293 10.2601 12.1293 10.4653 12.1294 10.6705C12.1295 10.857 12.1295 11.0436 12.1308 11.2302C12.1314 11.2963 12.1181 11.3252 12.0448 11.3224C11.9975 11.3206 11.9501 11.3243 11.9028 11.328C11.8641 11.331 11.8253 11.3341 11.7866 11.3341C11.1504 11.3452 10.5141 11.3491 9.87734 11.3219C9.79739 11.3185 9.77796 11.2952 9.77796 11.218C9.77975 11.0382 9.77954 10.8582 9.77933 10.6782C9.77909 10.4665 9.77885 10.2547 9.78185 10.0431C9.78296 9.95875 9.75686 9.94154 9.68191 9.94931C9.51672 9.96746 9.34993 9.97908 9.18265 9.99074C9.0531 9.99977 8.92325 10.0088 8.79362 10.0209C8.21971 10.0685 7.64993 10.157 7.08864 10.2858C6.78995 10.358 6.49348 10.4313 6.22811 10.6045C5.96273 10.7777 5.96717 10.9776 6.24032 11.1442C6.47794 11.2891 6.7411 11.3685 7.00703 11.4362C7.70545 11.6139 8.41998 11.6961 9.13617 11.7516Z" fill="url(#paint0_linear_229_532)"/>
    </g>
    <defs>
        <linearGradient id="paint0_linear_229_532" x1="11" y1="1.83398" x2="11" y2="20.1672" gradientUnits="userSpaceOnUse">
            <stop stop-color="#3CD683"/>
            <stop offset="1" stop-color="#2BCB58"/>
        </linearGradient>
        <clipPath id="clip0_229_532">
            <rect width="18.3333" height="18.3333" fill="white" transform="translate(1.83325 1.83398)"/>
        </clipPath>
    </defs>
</svg>
