<svg width="48" height="48" viewBox="0 0 48 48" fill="none" xmlns="http://www.w3.org/2000/svg">
    <mask id="mask0_100_481" style="mask-type:alpha" maskUnits="userSpaceOnUse" x="0" y="0" width="48" height="48">
        <rect width="48" height="48" fill="#D9D9D9"/>
    </mask>
    <g mask="url(#mask0_100_481)">
    </g>
    <g clip-path="url(#clip0_100_481)">
        <path fill-rule="evenodd" clip-rule="evenodd" d="M24.8709 4H23.0442C22.8785 4.05609 22.7069 4.06031 22.5355 4.06453C22.4626 4.06632 22.3898 4.06811 22.3175 4.0739C21.0132 4.17742 19.723 4.41366 18.4667 4.77895C15.4974 5.62978 12.7678 7.16211 10.495 9.25394C7.10248 12.3517 4.88492 16.527 4.21801 21.0726C4.03855 22.2825 3.97003 23.5063 4.0133 24.7287C4.15749 28.6826 5.47077 32.505 7.78708 35.7125C10.1034 38.92 13.3187 41.3686 17.0264 42.7486C18.3856 43.259 19.7974 43.6161 21.2358 43.8134C22.7129 44.0149 24.2078 44.0531 25.6934 43.9273C27.2129 43.8009 28.713 43.501 30.1643 43.0333C31.6645 42.5474 33.1009 41.8833 34.4427 41.055C36.9403 39.5244 39.0715 37.4642 40.6859 35.0197C42.3002 32.5753 43.3584 29.8062 43.7856 26.908C43.8764 26.2854 43.9346 25.659 43.9685 25.0315C43.9689 25.0234 43.969 25.0152 43.9691 25.0069C43.9693 24.972 43.9696 24.9368 44 24.9104V23.1272C43.9914 23.0333 43.9824 22.9396 43.9734 22.8459C43.9558 22.6615 43.9381 22.4773 43.9237 22.2925C43.5047 17.3524 41.2629 12.7449 37.6345 9.36661C34.6734 6.60062 30.9391 4.80368 26.9301 4.21563C26.2881 4.11749 25.641 4.05602 24.992 4.0315C24.9853 4.0313 24.9785 4.03133 24.9716 4.03135C24.9353 4.03146 24.8984 4.03158 24.8709 4ZM14.5893 13.5557H23.8922H23.8946C26.9883 13.5597 30.084 13.5565 33.1817 13.546C33.3889 13.546 33.447 13.5933 33.447 13.8053C33.4397 15.3559 33.4397 16.9065 33.447 18.4571C33.447 18.6376 33.3973 18.6837 33.2181 18.6837C32.1382 18.6788 31.0586 18.6788 29.979 18.6788C28.8994 18.6788 27.8198 18.6788 26.74 18.674C26.5122 18.6728 26.4711 18.7406 26.4711 18.9526C26.4832 19.6043 26.4783 20.2561 26.4711 20.9078C26.4698 21.0653 26.4989 21.132 26.6782 21.1429C27.9704 21.211 29.2579 21.3497 30.535 21.5584C31.9813 21.8031 33.4204 22.1035 34.7528 22.7322C35.1998 22.9418 35.6334 23.1768 35.9544 23.5645C36.3796 24.0769 36.3481 24.5736 35.8781 25.0461C35.4396 25.4858 34.8945 25.7535 34.3288 25.9813C33.2851 26.3821 32.2041 26.6783 31.1019 26.8656C29.616 27.1334 28.1146 27.3065 26.6067 27.3841C26.4989 27.3914 26.4674 27.4314 26.4747 27.5283V27.7027C26.469 30.4567 26.469 33.2103 26.4747 35.9634C26.4747 36.15 26.4432 36.219 26.2324 36.219C25.2133 36.215 24.1942 36.2163 23.1751 36.2177C22.6655 36.2183 22.1559 36.219 21.6464 36.219C21.3448 36.219 21.3448 36.2154 21.3448 35.9222C21.3448 35.0019 21.3437 34.0816 21.3426 33.1613C21.3405 31.3209 21.3383 29.4806 21.3448 27.6409C21.346 27.4289 21.2806 27.3587 21.0892 27.3587C20.366 27.3369 19.6465 27.2581 18.9294 27.1721C17.3923 26.988 15.8721 26.7263 14.3979 26.2417C13.6602 25.9995 12.9431 25.7148 12.3278 25.2302C12.0633 25.0478 11.8709 24.7787 11.7839 24.4694C11.6773 24.0079 11.9086 23.6759 12.2272 23.3876C12.6899 22.9733 13.2496 22.7104 13.8225 22.4887C15.0532 22.0114 16.3396 21.7425 17.6382 21.5341C18.7866 21.3494 19.9444 21.2281 21.1061 21.1707C21.2854 21.1635 21.3484 21.121 21.3484 20.9212C21.3327 20.2537 21.3351 19.5874 21.3484 18.9211C21.3557 18.7285 21.306 18.6788 21.1134 18.6788C18.9609 18.6861 16.8096 18.6861 14.6571 18.6861C14.4669 18.6861 14.3773 18.68 14.3773 18.4305C14.3773 18.1922 14.3765 17.9548 14.3757 17.7174C14.3741 17.2425 14.3725 16.7676 14.3773 16.2863C14.3814 15.8787 14.3755 15.472 14.3695 15.0643C14.3649 14.7496 14.3603 14.4344 14.3603 14.1178C14.375 13.9973 14.3791 13.8756 14.3725 13.7544C14.3342 13.555 14.4368 13.5553 14.571 13.5557C14.577 13.5557 14.5831 13.5557 14.5893 13.5557ZM19.9336 25.6385C21.283 25.7442 22.6341 25.7935 23.9867 25.7862C25.4221 25.7778 26.8599 25.7342 28.2953 25.6118C29.8955 25.4773 31.4847 25.2883 33.0364 24.8595C33.55 24.7166 34.0648 24.5579 34.5021 24.232C34.9721 23.877 34.9721 23.516 34.4876 23.1793C34.1304 22.9446 33.7383 22.768 33.3259 22.6559C32.222 22.3378 31.093 22.1145 29.9512 21.9884C29.0115 21.8688 28.0681 21.8001 27.1242 21.7313C26.9877 21.7214 26.8511 21.7114 26.7146 21.7013C26.5195 21.6868 26.4602 21.7292 26.4602 21.9363C26.464 22.3843 26.4642 22.832 26.4643 23.2797C26.4644 23.6867 26.4646 24.0937 26.4675 24.5009C26.4687 24.6451 26.4396 24.7081 26.2797 24.702C26.1764 24.698 26.0732 24.7061 25.9699 24.7142C25.8854 24.7208 25.8009 24.7275 25.7164 24.7275C24.3283 24.7517 22.9401 24.7602 21.5507 24.7008C21.3763 24.6935 21.3339 24.6427 21.3339 24.4743C21.3378 24.0819 21.3374 23.6892 21.3369 23.2965C21.3364 22.8345 21.3358 22.3725 21.3424 21.9109C21.3448 21.7268 21.2879 21.6892 21.1244 21.7062C20.7639 21.7458 20.4 21.7711 20.035 21.7966C19.7524 21.8163 19.4691 21.836 19.1863 21.8624C17.9341 21.9662 16.6909 22.1593 15.4663 22.4403C14.8146 22.5978 14.1678 22.7577 13.5888 23.1357C13.0098 23.5136 13.0195 23.9497 13.6154 24.3132C14.1339 24.6293 14.708 24.8026 15.2882 24.9504C16.8121 25.338 18.371 25.5173 19.9336 25.6385Z" fill="white"/>
    </g>
    <defs>
        <clipPath id="clip0_100_481">
            <rect width="40" height="40" fill="white" transform="translate(4 4)"/>
        </clipPath>
    </defs>
</svg>
