<svg width="30" height="31" viewBox="0 0 30 31" fill="none" xmlns="http://www.w3.org/2000/svg">
    <path d="M24.5091 0.046875H5.49093C2.45837 0.046875 0 2.3573 0 5.20736V24.8864C0 27.7365 2.45837 30.0469 5.49093 30.0469H24.5091C27.5416 30.0469 30 27.7365 30 24.8864V5.20736C30 2.3573 27.5416 0.046875 24.5091 0.046875Z" fill="url(#paint0_linear_4_530)"/>
    <path d="M24.5091 0.046875H5.49093C2.45837 0.046875 0 2.3573 0 5.20736V23.5323C0 26.3824 2.45837 28.6928 5.49093 28.6928H24.5091C27.5416 28.6928 30 26.3824 30 23.5323V5.20736C30 2.3573 27.5416 0.046875 24.5091 0.046875Z" fill="url(#paint1_linear_4_530)"/>
    <path d="M21.3417 8.24453H21.865H21.9464H21.3417ZM21.3417 8.24453C20.5208 8.24771 19.702 8.16709 18.8997 8.0041L21.3417 8.24453ZM23.2789 9.36504C23.2794 9.19489 23.2417 9.02676 23.1686 8.87168C23.0956 8.71663 22.9888 8.57831 22.8558 8.46547C22.6055 8.25296 22.2821 8.13517 21.9471 8.13299H21.9464H21.865H21.865H21.8649H21.8649H21.8649H21.8649H21.8648H21.8648H21.8647H21.8647H21.8646H21.8646H21.8645H21.8644H21.8644H21.8643H21.8642H21.8641H21.864H21.8639H21.8638H21.8637H21.8636H21.8635H21.8633H21.8632H21.8631H21.8629H21.8628H21.8626H21.8625H21.8623H21.8622H21.862H21.8618H21.8617H21.8615H21.8613H21.8611H21.8609H21.8607H21.8605H21.8603H21.8601H21.8599H21.8596H21.8594H21.8592H21.8589H21.8587H21.8584H21.8582H21.8579H21.8577H21.8574H21.8571H21.8569H21.8566H21.8563H21.856H21.8557H21.8554H21.8551H21.8548H21.8545H21.8542H21.8539H21.8536H21.8532H21.8529H21.8526H21.8522H21.8519H21.8515H21.8512H21.8508H21.8504H21.8501H21.8497H21.8493H21.8489H21.8485H21.8481H21.8477H21.8473H21.8469H21.8465H21.8461H21.8457H21.8453H21.8448H21.8444H21.844H21.8435H21.8431H21.8426H21.8422H21.8417H21.8413H21.8408H21.8403H21.8399H21.8394H21.8389H21.8384H21.8379H21.8374H21.8369H21.8364H21.8359H21.8354H21.8349H21.8343H21.8338H21.8333H21.8327H21.8322H21.8316H21.8311H21.8305H21.83H21.8294H21.8289H21.8283H21.8277H21.8271H21.8265H21.826H21.8254H21.8248H21.8242H21.8236H21.823H21.8223H21.8217H21.8211H21.8205H21.8199H21.8192H21.8186H21.8179H21.8173H21.8166H21.816H21.8153H21.8147H21.814H21.8133H21.8127H21.812H21.8113H21.8106H21.8099H21.8092H21.8085H21.8078H21.8071H21.8064H21.8057H21.805H21.8042H21.8035H21.8028H21.802H21.8013H21.8006H21.7998H21.7991H21.7983H21.7975H21.7968H21.796H21.7952H21.7945H21.7937H21.7929H21.7921H21.7913H21.7905H21.7897H21.7889H21.7881H21.7873H21.7865H21.7857H21.7848H21.784H21.7832H21.7823H21.7815H21.7807H21.7798H21.779H21.7781H21.7772H21.7764H21.7755H21.7747H21.7738H21.7729H21.772H21.7711H21.7702H21.7694H21.7685H21.7676H21.7667H21.7657H21.7648H21.7639H21.763H21.7621H21.7611H21.7602H21.7593H21.7583H21.7574H21.7565H21.7555H21.7546H21.7536H21.7526H21.7517H21.7507H21.7497H21.7488H21.7478H21.7468H21.7458H21.7448H21.7438H21.7428H21.7418H21.7408H21.7398H21.7388H21.7378H21.7368H21.7357H21.7347H21.7337H21.7327H21.7316H21.7306H21.7295H21.7285H21.7274H21.7264H21.7253H21.7243H21.7232H21.7221H21.7211H21.72H21.7189H21.7178H21.7167H21.7156H21.7145H21.7134H21.7123H21.7112H21.7101H21.709H21.7079H21.7068H21.7057H21.7045H21.7034H21.7023H21.7011H21.7H21.6989H21.6977H21.6966H21.6954H21.6943H21.6931H21.6919H21.6908H21.6896H21.6884H21.6872H21.6861H21.6849H21.6837H21.6825H21.6813H21.6801H21.6789H21.6777H21.6765H21.6753H21.6741H21.6729H21.6716H21.6704H21.6692H21.668H21.6667H21.6655H21.6643H21.663H21.6618H21.6605H21.6593H21.658H21.6567H21.6555H21.6542H21.653H21.6517H21.6504H21.6491H21.6478H21.6466H21.6453H21.644H21.6427H21.6414H21.6401H21.6388H21.6375H21.6362H21.6348H21.6335H21.6322H21.6309H21.6296H21.6282H21.6269H21.6256H21.6242H21.6229H21.6215H21.6202H21.6188H21.6175H21.6161H21.6148H21.6134H21.612H21.6107H21.6093H21.6079H21.6065H21.6052H21.6038H21.6024H21.601H21.5996H21.5982H21.5968H21.5954H21.594H21.5926H21.5912H21.5898H21.5884H21.5869H21.5855H21.5841H21.5827H21.5812H21.5798H21.5783H21.5769H21.5755H21.574H21.5726H21.5711H21.5697H21.5682H21.5667H21.5653H21.5638H21.5623H21.5609H21.5594H21.5579H21.5564H21.5549H21.5535H21.552H21.5505H21.549H21.5475H21.546H21.5445H21.543H21.5415H21.54H21.5384H21.5369H21.5354H21.5339H21.5323H21.5308H21.5293H21.5278H21.5262H21.5247H21.5231H21.5216H21.52H21.5185H21.5169H21.5154H21.5138H21.5123H21.5107H21.5091H21.5076H21.506H21.5044H21.5028H21.5013H21.4997H21.4981H21.4965H21.4949H21.4933H21.4917H21.4901H21.4885H21.4869H21.4853H21.4837H21.4821H21.4805H21.4789H21.4772H21.4756H21.474H21.4724H21.4707H21.4691H21.4675H21.4658H21.4642H21.4626H21.4609H21.4593H21.4576H21.456H21.4543H21.4527H21.451H21.4493H21.4477H21.446H21.4443H21.4427H21.441H21.4393H21.4376H21.4359H21.4343H21.4326H21.4309H21.4292H21.4275H21.4258H21.4241H21.4224H21.4207H21.419H21.4173H21.4156H21.4139H21.4122H21.4104H21.4087H21.407H21.4053H21.4035H21.4018H21.4001H21.3984H21.3966H21.3949H21.3931H21.3914H21.3897H21.3879H21.3862H21.3844H21.3826H21.3809H21.3791H21.3774H21.3756H21.3738H21.3721H21.3703H21.3685H21.3668H21.365H21.3632H21.3614H21.3596H21.3579H21.3561H21.3543H21.3525H21.3507H21.3489H21.3471H21.3453H21.3435L21.3417 8.13299L21.3413 8.13299C20.5284 8.13613 19.7175 8.05634 18.923 7.89502C18.3378 7.76315 17.699 7.39153 17.1481 7.01326C16.8739 6.82497 16.6244 6.63714 16.4169 6.47981C16.3991 6.4663 16.3815 6.45297 16.3643 6.43986C16.1833 6.30247 16.0331 6.1885 15.9349 6.12782L15.9349 6.12781L15.9335 6.12698C15.7126 5.99491 15.4568 5.92508 15.196 5.92508C15.1764 5.92508 15.1567 5.92547 15.1372 5.92626C14.8913 5.93618 14.6765 6.03371 14.4847 6.15872C14.3335 6.25726 14.1896 6.3779 14.0545 6.49121C14.0201 6.52002 13.9864 6.54835 13.9532 6.57572C13.3956 7.0354 12.455 7.70709 11.5391 7.91679C10.7381 8.07113 9.92172 8.14362 9.10411 8.133L9.10411 8.13299H9.10266H9.10086H9.09906H9.09726H9.09546H9.09367H9.09188H9.09009H9.0883H9.08652H9.08474H9.08296H9.08119H9.07942H9.07765H9.07588H9.07412H9.07235H9.0706H9.06884H9.06709H9.06534H9.06359H9.06184H9.0601H9.05836H9.05662H9.05489H9.05316H9.05143H9.0497H9.04798H9.04626H9.04454H9.04283H9.04111H9.0394H9.0377H9.03599H9.03429H9.03259H9.0309H9.0292H9.02751H9.02583H9.02414H9.02246H9.02078H9.0191H9.01743H9.01576H9.01409H9.01242H9.01076H9.0091H9.00745H9.00579H9.00414H9.00249H9.00085H8.9992H8.99756H8.99592H8.99429H8.99266H8.99103H8.9894H8.98778H8.98616H8.98454H8.98293H8.98131H8.9797H8.9781H8.97649H8.97489H8.97329H8.9717H8.97011H8.96852H8.96693H8.96535H8.96377H8.96219H8.96061H8.95904H8.95747H8.95591H8.95434H8.95278H8.95122H8.94967H8.94811H8.94657H8.94502H8.94348H8.94193H8.9404H8.93886H8.93733H8.9358H8.93427H8.93275H8.93123H8.92971H8.9282H8.92669H8.92518H8.92367H8.92217H8.92067H8.91917H8.91768H8.91619H8.9147H8.91321H8.91173H8.91025H8.90877H8.9073H8.90583H8.90436H8.90289H8.90143H8.89997H8.89852H8.89706H8.89561H8.89417H8.89272H8.89128H8.88984H8.88841H8.88698H8.88555H8.88412H8.8827H8.88128H8.87986H8.87844H8.87703H8.87562H8.87422H8.87282H8.87142H8.87002H8.86863H8.86723H8.86585H8.86446H8.86308H8.8617H8.86033H8.85895H8.85758H8.85622H8.85486H8.85349H8.85214H8.85078H8.84943H8.84808H8.84674H8.8454H8.84406H8.84272H8.84139H8.84006H8.83873H8.83741H8.83609H8.83477H8.83345H8.83214H8.83083H8.82953H8.82822H8.82693H8.82563H8.82434H8.82305H8.82176H8.82047H8.81919H8.81792H8.81664H8.81537H8.8141H8.81284H8.81157H8.81031H8.80906H8.8078H8.80655H8.80531H8.80406H8.80282H8.80159H8.80035H8.79912H8.79789H8.79667H8.79545H8.79423H8.79301H8.7918H8.79059H8.78938H8.78818H8.78698H8.78578H8.78459H8.7834H8.78221H8.78103H8.77985H8.77867H8.7775H8.77632H8.77516H8.77399H8.77283H8.77167H8.77052H8.76936H8.76821H8.76707H8.76593H8.76479H8.76365H8.76252H8.76139H8.76026H8.75914H8.75802H8.7569H8.75578H8.75467H8.75357H8.75246H8.75136H8.75026H8.74917H8.74808H8.74699H8.7459H8.74482H8.74374H8.74267H8.7416H8.74053H8.73946H8.7384H8.73734H8.73629H8.73523H8.73418H8.73314H8.7321H8.73106H8.73002H8.72899H8.72796H8.72693H8.72591H8.72489H8.72387H8.72286H8.72185H8.72084H8.71984H8.71884H8.71784H8.71685H8.71586H8.71487H8.71389H8.71291H8.71193H8.71096H8.70999H8.70902H8.70806H8.7071H8.70614H8.70518H8.70423H8.70329H8.70234H8.7014H8.70047H8.69953H8.6986H8.69767H8.69675H8.69583H8.69491H8.694H8.69309H8.69218H8.69128H8.69038H8.68948H8.68859H8.6877H8.68681H8.68593H8.68505H8.68417H8.6833H8.68243H8.68156H8.6807H8.67984H8.67898H8.67813H8.67728H8.67644H8.67559H8.67475H8.67392H8.67309H8.67226H8.67143H8.67061H8.66979H8.66897H8.66816H8.66735H8.66655H8.66575H8.66495H8.66415H8.66336H8.66258H8.66179H8.66101H8.66023H8.65946H8.65869H8.65792H8.65716H8.6564H8.65564H8.65489H8.65414H8.65339H8.65265H8.65191H8.65117H8.65044H8.64971H8.64898H8.64826H8.64754H8.64683H8.64612H8.64541H8.6447H8.644H8.64331H8.64261H8.64192H8.64123H8.64055H8.63987H8.63919H8.63852H8.63785H8.63718H8.63652H8.63586H8.63521H8.63456H8.63391H8.63326H8.63262H8.63198H8.63135H8.63072H8.63009H8.62947H8.62885H8.62823H8.62762H8.62701H8.6264H8.6258H8.6252H8.62461H8.62402H8.62343H8.62284H8.62226H8.62169H8.62111H8.62054H8.61998H8.61941H8.61885H8.6183H8.61775H8.6172H8.61665H8.61611H8.61557H8.61504H8.61451H8.61398H8.61346H8.61294H8.61242H8.61191H8.6114H8.6109H8.6104H8.6099H8.60941H8.60891H8.60843H8.60794H8.60747H8.60699H8.60652H8.60605H8.60558H8.60512H8.60466H8.60421H8.60376H8.60331H8.60287H8.60243H8.602H8.60156H8.60113H8.60071H8.60029H8.59987H8.59946H8.59905H8.59864H8.59824H8.59784H8.59745H8.59705H8.59667H8.59628H8.5959H8.59553H8.59515H8.59478H8.59442H8.59406H8.5937H8.59334H8.59299H8.59265H8.5923H8.59196H8.59163H8.5913H8.59097H8.59064H8.59032H8.59001H8.58969H8.58938H8.58908H8.58878H8.58848H8.58818H8.58789H8.58761H8.58732H8.58704H8.58677H8.5865H8.58623H8.58596H8.5857H8.58545H8.58519H8.58494H8.5847H8.58446H8.58422H8.58399H8.58376H8.58353H8.58331H8.58309H8.58287H8.58266H8.58245H8.58225H8.58205H8.58186H8.58166H8.58148H8.58129H8.58111H8.58093H8.58076H8.58059H8.58043H8.58027H8.58011H8.57995H8.57981H8.57966H8.57952H8.57938L8.49798 8.13299L8.49768 8.13299C8.1653 8.13388 7.84388 8.24962 7.5948 8.45966C7.45989 8.57259 7.35153 8.71157 7.27733 8.86769C7.20312 9.02384 7.16489 9.19334 7.16544 9.36491M23.2789 9.36504L23.1674 9.36473H23.2789V9.36504ZM23.2789 9.36504V12.1406C23.2789 17.3025 21.4054 20.2303 19.4794 21.8728C17.5577 23.5116 15.596 23.8608 15.4303 23.8896L15.428 23.89L15.428 23.89C15.2744 23.9135 15.1177 23.9135 14.964 23.89L14.9603 23.8894L14.9603 23.8893L14.9543 23.8882C14.7625 23.8524 12.8367 23.4926 10.9473 21.8726C9.03157 20.2301 7.16544 17.3023 7.16544 12.1406V9.36491M7.16544 9.36491C7.16544 9.36498 7.16544 9.36504 7.16544 9.3651L7.27698 9.36473H7.16544V9.36491Z" fill="url(#paint2_linear_4_530)" stroke="#735514" stroke-width="0.223089"/>
    <path d="M22.7836 7.4569C22.5539 7.26182 22.256 7.15291 21.9464 7.1509H21.865C21.865 7.1509 21.6498 7.1509 21.3417 7.1509C20.5208 7.15407 19.702 7.07346 18.8997 6.91047C17.6845 6.65911 16.2833 5.4023 15.853 5.15094C15.6497 5.0294 15.4137 4.96484 15.1728 4.96484C14.9318 4.96484 14.6958 5.0294 14.4925 5.15094C14.4692 5.18373 12.9982 6.60446 11.5621 6.93233C10.7531 7.08834 9.92846 7.16163 9.10266 7.1509C8.79451 7.1509 8.60264 7.1509 8.57938 7.1509H8.49798C8.19097 7.15173 7.89501 7.2587 7.66654 7.45144C7.54356 7.55435 7.44524 7.68064 7.37808 7.82194C7.31092 7.96324 7.27646 8.11634 7.27698 8.27109V11.047C7.27698 21.3091 14.6902 22.6314 14.9809 22.6861C15.1234 22.7079 15.2687 22.7079 15.4111 22.6861C15.7251 22.6314 23.1674 21.3091 23.1674 11.047V8.27109C23.1678 8.11767 23.1339 7.96588 23.0677 7.8256C23.0016 7.68532 22.9048 7.5597 22.7836 7.4569Z" fill="url(#paint3_linear_4_530)"/>
    <path d="M20.051 11.43L14.9287 16.0856C14.893 16.1366 14.8521 16.1842 14.8066 16.2277C14.6563 16.354 14.4617 16.4239 14.26 16.4239C14.0584 16.4239 13.8638 16.354 13.7135 16.2277C13.668 16.1855 13.6289 16.1377 13.5972 16.0856L10.8587 13.5993C10.7897 13.5371 10.7349 13.4624 10.6974 13.3798C10.6599 13.2972 10.6406 13.2083 10.6406 13.1184C10.6406 13.0286 10.6599 12.9397 10.6974 12.8571C10.7349 12.7745 10.7897 12.6998 10.8587 12.6376C11.002 12.5112 11.1912 12.4408 11.3878 12.4408C11.5843 12.4408 11.7735 12.5112 11.9169 12.6376L14.2426 14.7741L18.9754 10.4682C19.1187 10.3418 19.3079 10.2715 19.5045 10.2715C19.701 10.2715 19.8902 10.3418 20.0336 10.4682C20.1025 10.5304 20.1574 10.6051 20.1948 10.6877C20.2323 10.7704 20.2516 10.8593 20.2516 10.9491C20.2516 11.0389 20.2323 11.1278 20.1948 11.2104C20.1574 11.2931 20.1025 11.3677 20.0336 11.43H20.051Z" fill="#AF8731"/>
    <defs>
        <linearGradient id="paint0_linear_4_530" x1="28.5" y1="26.5" x2="0.000202896" y2="25.9886" gradientUnits="userSpaceOnUse">
            <stop stop-color="#76540D"/>
            <stop offset="0.177025" stop-color="#D4B26E"/>
            <stop offset="0.373577" stop-color="#C7901B"/>
            <stop offset="0.566952" stop-color="#FFF5E0"/>
            <stop offset="0.776143" stop-color="#A17412"/>
            <stop offset="0.931916" stop-color="#FFE8B6"/>
            <stop offset="1" stop-color="#A07418"/>
        </linearGradient>
        <linearGradient id="paint1_linear_4_530" x1="15" y1="28.6928" x2="15" y2="0.046875" gradientUnits="userSpaceOnUse">
            <stop stop-color="#A27616"/>
            <stop offset="1" stop-color="#FAECCF"/>
        </linearGradient>
        <linearGradient id="paint2_linear_4_530" x1="23.1673" y1="15.2438" x2="7.27698" y2="15.2438" gradientUnits="userSpaceOnUse">
            <stop stop-color="#A97F24"/>
            <stop offset="0.151042" stop-color="#7C5A13"/>
            <stop offset="0.5" stop-color="#EFDEB8"/>
            <stop offset="0.921875" stop-color="#7D5B14"/>
            <stop offset="1" stop-color="#B38D3A"/>
        </linearGradient>
        <linearGradient id="paint3_linear_4_530" x1="15.2173" y1="22.7024" x2="15.2173" y2="4.96484" gradientUnits="userSpaceOnUse">
            <stop stop-color="#FFEEC9"/>
            <stop offset="1" stop-color="#FFFDF8"/>
        </linearGradient>
    </defs>
</svg>
